<svg id="Layer_1" data-name="Layer 1" xmlns="http://www.w3.org/2000/svg" xmlns:xlink="http://www.w3.org/1999/xlink" viewBox="0 0 58.9 71.4"><defs><style>.cls-1{fill:none;}.cls-2{fill:#fff;}.cls-3{fill:#371a45;}.cls-4{fill:#d2b9ca;}.cls-5{fill:#c3bac7;}.cls-6{fill:#471948;}.cls-7{fill:url(#linear-gradient);}.cls-8{clip-path:url(#clip-path);}.cls-9{fill:#ff8a66;}.cls-10{fill:#bb3b19;}.cls-11{fill:#c3685c;}.cls-12{fill:#464049;}.cls-13{fill:#a3a0a4;}.cls-14{fill:#403147;}.cls-15{fill:#786a7e;}.cls-16{fill:url(#linear-gradient-2);}.cls-17{fill:url(#linear-gradient-3);}.cls-18{fill:#aea5bc;}.cls-19{fill:url(#linear-gradient-4);}.cls-20{fill:url(#linear-gradient-5);}.cls-21{fill:#f7528a;}.cls-22{fill:#bd4175;}.cls-23{fill:url(#linear-gradient-6);}.cls-24{fill:url(#linear-gradient-7);}.cls-25{fill:url(#linear-gradient-8);}.cls-26{fill:#998aa0;}</style><linearGradient id="linear-gradient" x1="14.19" y1="48.8" x2="68.43" y2="48.8" gradientTransform="matrix(-1, 0, 0, 1, 84.28, 0)" gradientUnits="userSpaceOnUse"><stop offset="0" stop-color="#f89160"/><stop offset="1" stop-color="#f7c069"/></linearGradient><clipPath id="clip-path" transform="translate(-11.9 -5.1)"><path class="cls-1" d="M69.5,48.6a6.4,6.4,0,0,1-.4,6.1c-1.9,2.6-20.8,2.7-24.8,2.2C38,56.3,16,52.3,15.9,47.7s.7-5.3,4.4-6c7.8-1.5,24.4-1.4,28.4-.9s18.9,4.6,20.8,7.8"/></clipPath><linearGradient id="linear-gradient-2" x1="56.83" y1="9.33" x2="70.03" y2="9.33" gradientTransform="matrix(-1, 0, 0, 1, 84.28, 0)" gradientUnits="userSpaceOnUse"><stop offset="0" stop-color="#f89160"/><stop offset="1" stop-color="#f7da4e"/></linearGradient><linearGradient id="linear-gradient-3" x1="60.71" y1="11.16" x2="69.62" y2="11.16" xlink:href="#linear-gradient-2"/><linearGradient id="linear-gradient-4" x1="17.89" y1="29.18" x2="26.85" y2="29.18" xlink:href="#linear-gradient-2"/><linearGradient id="linear-gradient-5" x1="18.56" y1="26.22" x2="24.29" y2="26.22" xlink:href="#linear-gradient-2"/><linearGradient id="linear-gradient-6" x1="18.7" y1="31.12" x2="29.16" y2="31.12" xlink:href="#linear-gradient-2"/><linearGradient id="linear-gradient-7" x1="19.11" y1="31.23" x2="28.87" y2="31.23" xlink:href="#linear-gradient-2"/><linearGradient id="linear-gradient-8" x1="60.42" y1="7.58" x2="66.44" y2="7.58" xlink:href="#linear-gradient-2"/></defs><path class="cls-2" d="M67.4,53.9c.3.1.3,0,.5.3s.1.3.2.5l.3.5c.1.2.1.4.2.5a1.3,1.3,0,0,1,.1.6l.4.5c0,.1-.2.4-.2.6l.3.5v.6c0,.2.2.3.2.5s-.1.4-.1.6.2.3.2.5-.2.4-.2.6.1.4.1.6v.6a.7.7,0,0,1-.1.5c0,.2.3.4.2.6a1.4,1.4,0,0,1-.2.6c0,.2.1.4.1.6s-.2.4-.2.5a1.4,1.4,0,0,1-.2.6c0,.2.1.4.1.6s-.2.3-.2.5a21996312964373.5,21996312964373.5,0,0,0-.2,1.2l-.2.5a1.3,1.3,0,0,0-.1.6l-.3.5c-.1.2-.3.3-.4.4s-.1.4-.2.6l-.3.5c-.1.2-.4.2-.5.3l-.4.4c-.1.2-.1.5-.2.6l-.6.2-.5.3c-.2.1-.3.3-.4.4l-.6.2-.5.2-.5.3-.5.2-.5.3H60.8c-.2.1-.3.3-.5.3H59.1l-.5.2c-.2,0-.3.3-.5.4H56.3a.9.9,0,0,1-.5.3h-.6l-.5.2h-.6l-.6.2H52.4l-.6.2c-.1.1-.2,0-.3,0h-.3l-.5.2H47.8c-.2,0-.4.3-.5.3H46.1l-.6-.3H43.8a.9.9,0,0,1-.5-.3h-.6l-.6-.2H39.3c-.2,0-.3-.3-.5-.3s-.2,0-.3,0h-.3l-.6-.2h-.5c-.1-.1-.2,0-.3,0h-.9c-.2,0-.3-.3-.5-.3h-.6l-.5-.2-.5-.3-.6-.2H32l-.5-.2-.5-.2h-.6l-.6-.2h-.5l-.5-.3h-.6c-.2,0-.3-.3-.5-.4h-.6l-.5-.3h-.5a.9.9,0,0,1-.5-.3H24.4l-.5-.3-.5-.3c-.2,0-.3-.3-.4-.3l-.6-.2-.5-.2c-.2,0-.3-.2-.5-.3s-.3-.3-.5-.3l-.5-.2-.5-.3-.5-.3-.4-.4h-.6a1,1,0,0,1-.4-.5l-.5-.3-.3-.4-.4-.4-.5-.4c-.1-.1-.3-.2-.4-.4l-.3-.5-.4-.4a1.3,1.3,0,0,1-.1-.6c-.1-.2-.2-.3-.2-.5a1.7,1.7,0,0,1-.2-.5c-.1-.2,0-.4-.1-.6s-.2-.3-.2-.5a1.3,1.3,0,0,1-.1-.6c0-.2-.3-.3-.3-.5s-.1-.4-.1-.6v-.5c0-.2-.1-.4-.1-.6s.1-.4.1-.6.1-.3.1-.5-.1-.4-.1-.6-.1-.4-.1-.6v-.5c.1-.2.4-.4.4-.6s-.1-.4,0-.5-.2-.4-.1-.6.3-.3.4-.5-.2-.4-.1-.6a1.3,1.3,0,0,1,.1-.6c0-.2.3-.3.4-.5s-.1-.4,0-.5a1.4,1.4,0,0,1,.2-.6c.1-.1.1-.3.2-.5s0-.4.1-.6.2-.3.3-.4.1-.4.2-.6.4-.2.4-.4,0-.4.1-.6a1,1,0,0,0,.5-.4c.1-.1.1-.3.3-.5l.5-.2.4-.5.5-.2h.5l.6.2h1.7c.2,0,.4.3.6.3h3.9l.6.2h1.1c.2.1.4.3.6.3h1.1l.6.2H31c.2,0,.3.3.5.3h.6l.6.2h1.7c0,.1.1,0,.2,0h.3c.2,0,.4.2.6.3h.6l.5.2h2.3l.5.2h1.1l.6.2h1.1l.6.2.5.2c.1.1.2,0,.3,0h.3l.6.2.5.2h.6l.5.2h.6c.2,0,.4.2.6.3h.6l.5.3h1.1l.6.2h2.2c.2,0,.4.2.6.3h.5l.6.2h1.1l.6.3h.5l.6.2h.6l.5.2h2.3l.5.2.6.2h1.1l.5.2.6.2h.6c.2.1.3.3.5.3h.6l.6.2h.5c.3.1.4.3.6.3h.5" transform="translate(-11.9 -5.1)"/><path class="cls-3" d="M47.8,75.8h7.4c.1-.1.2,0,.3,0h.3a.2.2,0,0,0,.2-.2h2.1l.2-.2.3-.2h1.9l.3-.2h2c0-.1.1-.1.2-.1l.2-.2h1.3l.2-.2.3-.3.4-.2H66a.4.4,0,0,0,.1-.3l.2-.3.3-.4h.1l.2-.2h.3c0-.1.1-.2.1-.3s.1-.2.1-.3.1-.1.1-.2.1-.2.1-.3l.2-.2.3-.2c0-.1,0-.2.1-.2v-.3c0-.1.1-.2.1-.3v-.3h.1c0-.1.1-.3.1-.4a.4.4,0,0,1,.1-.3V67a.8.8,0,0,1,.1-.4v-.2c0-.1.1-.2.1-.3s.1-.1.1-.2v-.3c0-.1-.1-.2,0-.3V65a.4.4,0,0,0,.1-.3c0-.1.1-.2.1-.3s.1-.1.1-.2,0-.2,0-.3v-.3a.4.4,0,0,1,.1-.3c0-.1.1-.2.1-.3a.3.3,0,0,1-.1-.2c-.1-.1-.1-.2-.1-.4v-.2a.4.4,0,0,1,.1-.3c0-.1-.1-.2-.1-.3v-.9a.4.4,0,0,1,.1-.3v-.5a.4.4,0,0,1-.1-.3V59c0-.1,0-.2-.1-.2s-.1-.2-.1-.3v-.6a.3.3,0,0,0-.1-.2.4.4,0,0,1-.1-.3A.8.8,0,0,1,69,57v-.2a.2.2,0,0,0-.2-.2c0-.1-.1-.2-.1-.3a.4.4,0,0,1-.1-.3c0-.1,0-.2-.1-.2a6181264102432.5,6181264102432.5,0,0,0-.2-.6h0c-.1-.1-.1-.3-.2-.4s-.1-.1-.1-.2l-.2-.3c-.1-.2-.1-.2-.2-.2h-.2a.1.1,0,0,0-.2,0H64.6l-.3-.2h-3l-.3-.2H53.1c0-.1-.1-.1-.2-.1h-.3l-.3-.2H48.1l-.3-.2H47l-.3-.2H42.8l-.3-.2H35.8c-.1,0-.2.1-.3,0h-.3l-.3-.2H31.5l-.3-.2h-.5a.2.2,0,0,1-.3,0H29.3c-.1,0-.2,0-.2.1h-.9l-.3-.2H23.4c-.1,0-.2.1-.3,0H22l-.4-.2c0-.1-.1-.1-.2-.1H18.6a.6.6,0,0,0-.5.2l-.2.2c0,.1-.1.1-.2.2s-.1.1-.2.1l-.3.2a.3.3,0,0,0-.1.2l-.2.3-.2.2-.2.2V49a.6.6,0,0,1-.1.4c-.1,0-.1.1-.2.2H16a.4.4,0,0,0-.1.3.4.4,0,0,0-.1.3c-.1.1-.1.2-.2.2l-.2.3V51a.4.4,0,0,1-.1.3c0,.2-.1.3-.1.4v.2c-.1,0-.1.1-.1.2l-.2.3v.2c0,.2.1.3,0,.4a.2.2,0,0,1-.2.2c-.1.1-.1.2-.2.2V54c-.1.1,0,.2,0,.3v.3c0,.1-.1.2-.2.3a.2.2,0,0,0-.2.2.4.4,0,0,0,.1.3v.5c0,.1.1.2,0,.3s-.1.2-.1.3l-.2.3v.8a.4.4,0,0,1,.1.3v.3a.5.5,0,0,1,0,.6V59c0,.1-.1.2-.1.3v.6a.4.4,0,0,0,.1.3c0,.1,0,.2-.1.2v.3a.4.4,0,0,1,.1.3c0,.1.1.2.1.3s0,.1.1.2l.2.3v.6a.3.3,0,0,1,.1.2c.1.1.2.2.2.3v.5a.3.3,0,0,1,.1.2c0,.1.1.3.1.4a.3.3,0,0,1,.1.2v.3a.4.4,0,0,1,.1.3c0,.1,0,.2.1.2l.2.3c0,.1.1.1.1.2l.2.2V66l.3.2.2.2h.2c.1.1.1.2.2.2s.3.3.4.4l.2.2.2.2.2.2c.1.1.2.1.2.2l.2.2.2.2h.8l.3.2c0,.1.1.1.2.2h.2l.3.2.2.2H21l.2.2h.2l.3.2c0,.1.1.1.2.2H23a.2.2,0,0,1,.2.2l.2.2h.3l.2.2h1.9l.3.2h.6c0,.1.1.1.2.2h.9l.2.3h1.9c0,.1.1.1.2.1h1.2c0,.1.1.1.2.1h2.3l.2.2h1.4l.3.2h3.1l.3.2c0,.1.1.1.2.1h2.8l.4.2h3l.4.2h1.9m-.5.4H43.8l-.3-.2H39.3l-.3-.2-.2-.2H35.9l-.3-.2h-.2c-.1-.1-.2,0-.3,0H34l-.3-.2H31.5l-.3-.2c-.1,0-.2,0-.2-.1h-.3a.2.2,0,0,1-.3,0H28.2l-.3-.3H26a.2.2,0,0,1-.2-.2H23.9l-.3-.2h-.2l-.3-.2a.2.2,0,0,0-.2-.2H21.8l-.2-.2-.2-.2h-.3l-.2-.2h-.6l-.2-.2-.2-.2h-.3l-.2-.2-.3-.2h-.8c-.1,0-.1-.1-.2-.2A.3.3,0,0,0,18,68c-.1-.1-.2-.1-.2-.2l-.3-.2-.2-.2-.2-.2-.4-.4-.2-.2-.2-.2h-.2l-.3-.2-.2-.3c0-.1,0-.2-.1-.2v-.2c-.1-.1-.2-.2-.2-.3a.4.4,0,0,1-.1-.3.4.4,0,0,1-.1-.3.4.4,0,0,1-.1-.3V64c0-.1-.1-.2-.1-.3a.3.3,0,0,0-.1-.2v-.6l-.2-.2c0-.1-.1-.2-.1-.3v-.3a.4.4,0,0,1-.1-.3v-.2a.4.4,0,0,1-.1-.3.3.3,0,0,1-.1-.2c0-.1-.1-.2-.1-.4v-.8a.4.4,0,0,0-.1-.3c0-.1.1-.2.1-.3V59c0-.1.1-.2.1-.3s.1-.1.1-.2-.1-.2-.1-.3v-.3c0-.1-.1-.2-.1-.3s-.1-.2-.1-.3a4.3,4.3,0,0,1,.1-.5c0-.2.1-.3.2-.3s.1-.2.1-.3v-.5a.4.4,0,0,0-.1-.3v-.3c0-.2.1-.2.2-.3l.2-.2v-.3a.4.4,0,0,1-.1-.3c0-.1.1-.2.1-.3v-.3c0-.1.1-.2.2-.3a.2.2,0,0,0,.2-.2v-.6a.4.4,0,0,0,.1-.3c.1,0,.1-.1.1-.2h.1c0-.2.1-.3.1-.4a.4.4,0,0,0,.1-.3v-.3l.2-.3c.1,0,.1-.1.2-.2V50a.4.4,0,0,0,.1-.3l.3-.2c.1-.1.2-.1.2-.2V49a.4.4,0,0,1,.1-.3c.1-.1.1-.2.2-.2s.2-.1.2-.2.1-.2.2-.2a.4.4,0,0,1,.1-.3l.3-.2h.3a.3.3,0,0,0,.1-.2l.2-.2a.8.8,0,0,1,.6-.2h2.8l.3.2h.5a.5.5,0,0,1,.4-.2H24c.1,0,.2,0,.2.1H31l.3.2h3.6c.2,0,.2.1.3.2h1.2c0,.1.1.1.2.1h6.2l.3.2h1.7c0,.1.1.1.2.1h.9c.1,0,.2,0,.2.1h.6c.2,0,.2.1.3.2h.9l.3.2h4.1c.2,0,.3.1.3.2h2.2c.1,0,.2-.1.4,0s.2,0,.2.1h5.9c.1.1.1,0,.2,0h2.3c.1,0,.2-.1.3,0h.3c.1.1.2.1.2.2h1.5c.1,0,.2-.1.2,0h1.1c.1,0,.2,0,.2.1s.2,0,.3.3l.2.2c0,.1.1.2.1.3l.2.4h.1a.4.4,0,0,0,.1.3c0,.1,0,.1.1.2V56c0,.1.1.2.1.3a.3.3,0,0,1,.1.2c.1,0,.2.1.2.3s0,.2,0,.3a.4.4,0,0,0-.1.3.3.3,0,0,1,.1.2c0,.1.1.2.1.3v.3a.4.4,0,0,0,.1.3v.2l.2.3c0,.1-.1.2-.1.3v.3c0,.1,0,.1.1.2s.1.2.1.3-.1.3-.1.4-.1.1-.1.2v.6c0,.1.1.2.1.3v.3a.4.4,0,0,1-.1.3v.2c0,.1.1.2.1.3a.4.4,0,0,1,.1.3c0,.2-.1.3-.1.4a.3.3,0,0,0-.1.2v.3a.4.4,0,0,1,.1.3v.3a.3.3,0,0,0-.1.2.8.8,0,0,0-.1.4c-.1,0-.1.1-.1.2v.3c0,.1.1.2.1.3l-.2.3c0,.1,0,.2-.1.2v.9a.4.4,0,0,1-.1.3,4.3,4.3,0,0,0-.1.5h0a.4.4,0,0,0-.1.3.4.4,0,0,1-.1.3V69a.3.3,0,0,0-.1.2l-.3.3c-.1,0-.1.1-.2.2v.2a.4.4,0,0,1-.1.3v.5l-.3.2-.2.2h-.1l-.3.4c-.1,0-.1.1-.1.2s-.1.3-.2.4h-.6l-.5.2a.2.2,0,0,1-.2.2l-.2.3h-.3c-.1,0-.2,0-.2.1h-.8l-.3.2H60.6l-.3.2H58.6c-.1,0-.1.1-.2.2l-.3.2h-2l-.3.2H54.7c-.1.1-.2,0-.3,0H47.6l-.3.2" transform="translate(-11.9 -5.1)"/><path class="cls-2" d="M13.9,60.2v.5c0,.2.1.4.1.6s.3.3.3.5a1.3,1.3,0,0,0,.1.6c0,.2.2.3.2.5s0,.4.1.6a1.7,1.7,0,0,0,.2.5c0,.2.1.3.2.5a1.3,1.3,0,0,0,.1.6l.4.4.3.5c.1.2.3.3.4.4l.5.4.4.4.3.4h.2l.3.2a1,1,0,0,0,.4.5H19l.4.4.5.3.5.3.5.2c.2,0,.3.2.5.3s.3.3.5.3l.5.2.6.2c.1,0,.2.3.4.3l.5.3.5.3h1.2a.9.9,0,0,0,.5.3h.5l.5.3h.6c.2.1.3.4.5.4h.6l.5.3h.5l.6.2H31l.5.2.5.2h1.2l.6.2.5.3h0l.5.2h.6c.2,0,.3.3.5.3h.9c.1,0,.2-.1.3,0h.5l.6.2h.3c.1,0,.2-.1.3,0s.3.3.5.3h2.8l.6.2h.6a.9.9,0,0,0,.5.3h1.7l.6.3h1.2c.1,0,.3-.3.5-.3h2.9l.5-.2h.3c.1,0,.2.1.3,0l.6-.2h1.1l.6-.2h.6l.5-.2h.6a.9.9,0,0,0,.5-.3h1.8c.2-.1.3-.4.5-.4l.5-.2h1.2c.2,0,.3-.2.5-.3H62l.5-.3.5-.2.5-.3.5-.2.6-.2c.1-.1.2-.3.4-.4l.5-.3.6-.2c.1-.1.1-.4.2-.6l.4-.4c.1-.1.4-.1.5-.3l.3-.5c.1-.2.1-.4.2-.6s.3-.2.4-.4l.3-.5a1.3,1.3,0,0,1,.1-.6l.2-.5a21996312964373.5,21996312964373.5,0,0,1,.2-1.2c0-.2.2-.3.2-.5s-.1-.4-.1-.6a1.4,1.4,0,0,0,.2-.6c0-.1.2-.3.2-.5s-.1-.4-.1-.6a1.4,1.4,0,0,0,.2-.6c.1-.2-.2-.4-.2-.6a.7.7,0,0,0,.1-.5v-.6c0-.2-.1-.4-.1-.6s.2-.4.2-.6-.2-.3-.2-.5.1-.4.1-.6-.2-.3-.2-.5v-.6l-.3-.5c0-.2.2-.5.2-.6l-.2-.3c-.1-.1-.2-.1-.2-.2a1.3,1.3,0,0,0-.1-.6c-.1-.1-.1-.3-.2-.5l-.3-.5c-.1-.2-.1-.4-.2-.5s-.2-.2-.5-.3h-.5c-.2,0-.3-.2-.6-.3h-.5l-.6-.2h-.6c-.2,0-.3-.2-.5-.3h-.6l-.6-.2-.5-.2H61.3l-.6-.2-.5-.2H57.9l-.5-.2h-.6l-.6-.2h-.5l-.6-.3H54l-.6-.2h-.5c-.2-.1-.4-.3-.6-.3H50.1l-.6-.2H48.4l-.5-.3h-.6c-.2-.1-.4-.3-.6-.3h-.6l-.5-.2H45l-.5-.2-.6-.2h-.3c-.1,0-.2.1-.3,0l-.5-.2-.6-.2H41.1l-.6-.2H39.4l-.5-.2H36.6l-.5-.2h-.6c-.2-.1-.4-.3-.6-.3h-.3c-.1,0-.2.1-.2,0H32.7l-.6-.2h-.6c-.2,0-.3-.3-.5-.3H29.9l-.6-.2H28.2c-.2,0-.4-.2-.6-.3H26.5l-.6-.2H21.8c-.1-.1-.2-.3-.4-.3H19.7l-.6-.2h-.5l-.5.2-.4.5-.5.2c-.2.2-.2.4-.3.5a1,1,0,0,1-.5.4c-.1.2,0,.5-.1.6s-.2.2-.4.4h0c-.1.2-.1.4-.2.6s-.3.3-.3.4,0,.4-.1.6-.1.4-.2.5a1.4,1.4,0,0,0-.2.6c-.1.1,0,.4,0,.5s-.4.3-.4.5a1.3,1.3,0,0,0-.1.6c-.1.2.1.4.1.6s-.4.3-.4.5.1.4.1.6,0,.3,0,.5-.3.4-.4.6v.5c0,.2.1.4.1.6s.1.4.1.6-.1.3-.1.5-.1.4-.1.6.1.4.1.6" transform="translate(-11.9 -5.1)"/><path class="cls-3" d="M47.8,75.8h7.4c.1-.1.2,0,.3,0h.3a.2.2,0,0,0,.2-.2h2.1l.2-.2.3-.2h1.9l.3-.2h2c0-.1.1-.1.2-.1l.2-.2h1.3l.2-.2.3-.3.4-.3H66a.4.4,0,0,0,.1-.3l.2-.3.3-.4h.1l.2-.2h.3c0-.1.1-.2.1-.3s.1-.2.1-.3.1-.1.1-.2a.4.4,0,0,0,.1-.3l.2-.2.3-.2c0-.1,0-.2.1-.2v-.3c0-.1.1-.2.1-.3v-.3h.1c0-.1.1-.3.1-.4a.4.4,0,0,1,.1-.3V67a.8.8,0,0,1,.1-.4v-.2c0-.1.1-.2.1-.3s.1-.1.1-.2v-.3c0-.1-.1-.2,0-.3V65a.4.4,0,0,0,.1-.3c0-.1.1-.2.1-.3s.1-.1.1-.2,0-.2,0-.3v-.3a.4.4,0,0,1,.1-.3c0-.1.1-.2.1-.3a.3.3,0,0,1-.1-.2c-.1-.1-.1-.2-.1-.4v-.2a.4.4,0,0,1,.1-.3c0-.1-.1-.2-.1-.3v-.9a.4.4,0,0,1,.1-.3v-.5a.4.4,0,0,1-.1-.3V59c0-.1,0-.2-.1-.2s-.1-.2-.1-.3v-.6a.3.3,0,0,0-.1-.2.4.4,0,0,1-.1-.3A.8.8,0,0,1,69,57v-.2a.2.2,0,0,0-.2-.2h0a.3.3,0,0,1-.1-.2.4.4,0,0,1-.1-.3c0-.1,0-.2-.1-.2a6181264102432.5,6181264102432.5,0,0,0-.2-.6h0c-.1-.1-.1-.3-.2-.4s-.1-.1-.1-.2l-.2-.3c-.1-.2-.1-.2-.2-.2h-3l-.3-.2h-3l-.3-.2h-.6c0-.1-.1-.1-.2-.1H52.6l-.3-.2H48.1l-.3-.2H47l-.3-.2H42.8l-.3-.2H35.8c-.1,0-.2.1-.3,0h-.3l-.3-.2h-.6c-.1,0-.2,0-.2-.1H31.5l-.3-.2h-.5c-.1,0-.2.1-.3,0H29.3c-.1,0-.2,0-.2.1h-.9l-.3-.2H23.4c-.1,0-.2.1-.3,0H21.6c0-.1-.1-.1-.2-.1H18.6a.6.6,0,0,0-.5.2l-.2.2c0,.1-.1.1-.2.2s-.1.1-.2.1l-.3.2a.3.3,0,0,0-.1.2l-.2.3-.2.2-.2.2V49a.6.6,0,0,1-.1.4c-.1,0-.1.1-.2.2s-.2,0-.2.1h0a.4.4,0,0,0-.1.3.4.4,0,0,0-.1.3c-.1.1-.1.2-.2.2l-.2.3V51a.4.4,0,0,1-.1.3c0,.2-.1.3-.1.4v.2c-.1,0-.1.1-.1.2l-.2.3v.2c0,.2.1.3,0,.4a.2.2,0,0,1-.2.2c-.1.1-.1.2-.2.2V54c-.1.1,0,.2,0,.3v.3c0,.1-.1.2-.2.3a.2.2,0,0,0-.2.2.4.4,0,0,0,.1.3v.5c0,.1.1.2,0,.3s-.1.2-.1.3l-.2.3v.8a.4.4,0,0,1,.1.3v.3a.5.5,0,0,1,0,.6V59c0,.1-.1.2-.1.3v.6a.4.4,0,0,0,.1.3c0,.1,0,.2-.1.2v.3a.4.4,0,0,1,.1.3c0,.1.1.2.1.3s0,.1.1.2l.2.3v.6a.3.3,0,0,1,.1.2c.1.1.2.2.2.3v.5a.3.3,0,0,1,.1.2c0,.1.1.3.1.4a.3.3,0,0,1,.1.2v.6c0,.1,0,.2.1.2l.2.3c0,.1.1.1.1.2l.2.2V66l.3.2.2.2h.2c.1.1.1.2.2.2s.3.3.4.4l.2.2.2.2c0,.1.1.1.1.2h.1c.1.1.2.1.2.2l.2.2.2.2h.8l.3.2c0,.1.1.1.2.2h.2l.3.2.2.2H21l.2.2h.2l.3.2c0,.1.1.1.2.2H23a.2.2,0,0,1,.2.2l.2.2h.3l.2.2h1.9l.3.2h.6c0,.1.1.1.2.2h.9l.2.3h1.9c0,.1.1.1.2.1h1.2c0,.1.1.1.2.1h2.3l.2.2h1.4l.3.2h3.1l.3.2c0,.1.1.1.2.1h2.8l.4.2h3l.4.2h1.9m-.5.4H43.8l-.3-.2H39.3l-.3-.2-.2-.2H35.9l-.3-.2h-.2c-.1-.1-.2,0-.3,0H34l-.3-.2H31.5l-.3-.2c-.1,0-.2,0-.2-.1h-.3a.2.2,0,0,1-.3,0H28.2l-.3-.3H26a.2.2,0,0,1-.2-.2H23.9l-.3-.2h-.2l-.3-.2a.2.2,0,0,0-.2-.2H21.8l-.2-.2-.2-.2h-.3l-.2-.2h-.6l-.2-.2-.2-.2h-.3l-.2-.2-.3-.2h-.8c-.1,0-.1-.1-.2-.2A.3.3,0,0,0,18,68c-.1-.1-.2-.1-.2-.2h-.1l-.2-.2-.2-.2-.2-.2-.4-.4-.2-.2-.2-.2h-.2l-.3-.2-.2-.3c0-.1,0-.2-.1-.2v-.2c-.1-.1-.2-.2-.2-.3a.4.4,0,0,1-.1-.3.4.4,0,0,1-.1-.3.4.4,0,0,1-.1-.3c-.1,0-.1-.1-.1-.2s-.1-.2-.1-.3a.3.3,0,0,0-.1-.2v-.6l-.2-.2c0-.1-.1-.2-.1-.3v-.3a.4.4,0,0,1-.1-.3v-.2a.4.4,0,0,1-.1-.3.3.3,0,0,1-.1-.2c0-.1-.1-.2-.1-.4v-.5h0v-.3a.4.4,0,0,0-.1-.3c0-.1.1-.2.1-.3V59c0-.1.1-.2.1-.3s.1-.1.1-.2-.1-.2-.1-.3v-.3c0-.1-.1-.2-.1-.3s-.1-.2-.1-.3.1-.3.1-.5.1-.3.2-.3.1-.2.1-.3v-.5a.4.4,0,0,0-.1-.3v-.3c0-.2.1-.2.2-.3l.2-.2v-.3a.4.4,0,0,1-.1-.3c0-.1.1-.2.1-.3v-.3c0-.1.1-.2.2-.3a.2.2,0,0,0,.2-.2v-.6a.4.4,0,0,0,.1-.3c.1,0,.1-.1.1-.2h.1c0-.2.1-.3.1-.4a.4.4,0,0,0,.1-.3v-.3l.2-.3c.1,0,.1-.1.2-.2V50a.4.4,0,0,0,.1-.3.1.1,0,0,0,.1-.1c0-.1.1-.1.2-.1s.2-.1.2-.2V49a.4.4,0,0,1,.1-.3c.1-.1.1-.2.2-.2s.2-.1.2-.2.1-.2.2-.2a.4.4,0,0,1,.1-.3l.3-.2h.3a.3.3,0,0,0,.1-.2l.2-.2a.8.8,0,0,1,.6-.2h2.8l.3.2h.5a.5.5,0,0,1,.4-.2H24c.1,0,.2,0,.2.1H31l.3.2h.5c.1,0,.2-.1.3,0h2.8c.2,0,.2.1.3.2h1.2c0,.1.1.1.2.1h6.2l.3.2h1.7c0,.1.1.1.2.1h.9c.1,0,.2,0,.2.1h.6c.2,0,.2.1.3.2h.9l.3.2h4.1c.2,0,.3.1.3.2h.6c.1,0,.2,0,.2.1h1.4c.1,0,.2-.1.4,0s.2,0,.2.1h5.9c.1.1.1,0,.2,0h1.8c0,.1.1.1.2.1h.3c.1,0,.2-.1.3,0h.3c.1.1.2.1.2.2h1.5c.1,0,.2-.1.2,0h1.1c.1,0,.2,0,.2.1s.2,0,.3.3l.2.2c0,.1.1.2.1.3l.2.4h.1a.4.4,0,0,0,.1.3c0,.1,0,.1.1.2V56c0,.1.1.2.1.3h.1c.1,0,.2.1.2.3s0,.2,0,.3a.4.4,0,0,0-.1.3.3.3,0,0,1,.1.2c0,.1.1.2.1.3v.3a.4.4,0,0,0,.1.3v.2l.2.3c0,.1-.1.2-.1.3v.3c0,.1,0,.1.1.2s.1.2.1.3-.1.3-.1.4-.1.1-.1.2v.6c0,.1.1.2.1.3v.3a.4.4,0,0,1-.1.3v.2c0,.1.1.2.1.3a.4.4,0,0,1,.1.3c0,.2,0,.3-.1.4a.3.3,0,0,0-.1.2v.3a.4.4,0,0,1,.1.3v.3a.3.3,0,0,0-.1.2.8.8,0,0,0-.1.4c-.1,0-.1.1-.1.2v.3c0,.1.1.2.1.3l-.2.3c0,.1,0,.2-.1.2v.9a.4.4,0,0,1-.1.3c0,.2-.1.3-.1.5h0a.4.4,0,0,0-.1.3.4.4,0,0,1-.1.3V69a.3.3,0,0,0-.1.2l-.3.3c-.1,0-.1.1-.2.2v.2a.4.4,0,0,1-.1.3v.5l-.3.2-.2.2h-.1l-.3.4c-.1,0-.1.1-.1.2s-.1.3-.2.4h-.6l-.5.2a.2.2,0,0,1-.2.2l-.2.3h-.3c-.1,0-.2,0-.2.1h-.8l-.3.2H60.6l-.3.2H58.6c-.1,0-.1.1-.2.2l-.3.2h-2l-.3.2H54.7c-.1.1-.2,0-.3,0H47.6l-.3.2" transform="translate(-11.9 -5.1)"/><path class="cls-4" d="M17,66.5h-.2l-.2-.2h-.4v-.3H16v-.2a.2.2,0,0,0-.2-.2v-.2h0c0-.1,0-.1-.1-.2h0v-.3h-.1v-.4h-.1a.4.4,0,0,0-.1-.3h0a.6.6,0,0,0-.1-.4.5.5,0,0,0-.2-.4h0a.3.3,0,0,1-.1-.2h0v-.3a.8.8,0,0,0-.2-.4h-.1a.4.4,0,0,0-.1-.3v-.2h0v-.2h0v-.7h-.1a.1.1,0,0,1,.1-.1V59a.1.1,0,0,1,.1-.1v-.8c0-.1-.1-.1-.1-.2v-.4h-.1v-.5h.1a.9.9,0,0,0,.3-.5v-.4h0v-.2c0-.2-.1-.3-.1-.4h0l.3-.2h-.1v.6c0,.1.1.2.1.3v.2a.4.4,0,0,0-.1.3.4.4,0,0,1,.1.3c0,.1.1.2.1.3s.1.2.1.3l.2.2v.6l.2.3a.3.3,0,0,1,.1.2v.2c0,.2,0,.3.1.4v.2a.4.4,0,0,1,.1.3c.1.1.1.1.1.2s.1.2.1.3a.4.4,0,0,1,.1.3.4.4,0,0,0,.1.3l.2.3.2.2a.1.1,0,0,0,.1.1c0,.1,0,.1.1.2a44.2,44.2,0,0,0,.3,4.9M14.9,54.3h-.1v-.2h0a.4.4,0,0,1,.1.3h0" transform="translate(-11.9 -5.1)"/><path class="cls-5" d="M16.7,61.6v-.3h-.1c-.1-.1-.1-.2-.2-.2l-.2-.3c0-.1-.1-.2-.1-.3a.3.3,0,0,0-.1-.2.4.4,0,0,0-.1-.3v-.2c-.1-.2-.1-.3-.2-.4v-.2a.4.4,0,0,1-.1-.3c.1,0,.1-.2,0-.2s-.1-.2-.1-.3a.4.4,0,0,1-.1-.3c-.1,0-.1-.1-.1-.2v-.3c0-.1-.1-.2-.2-.3A.3.3,0,0,0,15,57a.4.4,0,0,0-.1-.3V55.6a.5.5,0,0,1,0-.6v-.3c0-.1,0-.2.1-.2v-.6a.4.4,0,0,1-.1-.3h0v.2h0a.4.4,0,0,1,.1.3h0v.3h-.2v.6c0,.1.1.2.1.3v.2a.4.4,0,0,0-.1.3.4.4,0,0,1,.1.3c0,.1.1.2.1.3s.1.2.1.3l.2.2v.6l.2.3a.3.3,0,0,1,.1.2v.2c0,.2,0,.3.1.4v.2a.4.4,0,0,1,.1.3c.1.1.1.1.1.2s.1.2.1.3a.4.4,0,0,1,.1.3.4.4,0,0,0,.1.3l.2.3.2.2a.1.1,0,0,0,.1.1c0,.1,0,.1.1.2" transform="translate(-11.9 -5.1)"/><path class="cls-3" d="M21.3,47.3h0m10.3.6h0m-.7.5h0M16.2,49.9h0m31.6,1h0M67,53.4h0m.4.5h0m-53,7.3h0m52.5,9.2h0M34.4,74.1h0m13.4,1.3h3l.4-.2h.7l.4-.2h1.3l.4-.2h1.8l.5-.3H58a.9.9,0,0,1,.5-.3h1.1c.2-.1.4,0,.5,0h.1a.1.1,0,0,0,.1-.1l.4-.2h1.6l.3-.2h1.3l.3-.2h.2v-.2q0-.2.3-.3l.4-.2h.6l.2-.5.4-.3h0a.5.5,0,0,1,.4-.3h.1v-.2a.4.4,0,0,1,.1-.3v-.2c0-.1.1-.2.1-.4l.3-.3h.1l.2-.2V68h0c.1-.1.1-.3.2-.5v-.2a.4.4,0,0,1,.1-.3v-.3c0-.1.1-.2.1-.3V66c0-.1.1-.1.1-.2h0a.7.7,0,0,1-.1-.5c0-.1.1-.2.1-.3v-.2c0-.2.1-.3.1-.4s.1-.1.1-.2h0a.6.6,0,0,1-.1-.4.8.8,0,0,1,.2-.5h0a.8.8,0,0,1-.2-.5c0-.1.1-.2.1-.3v-.8a.4.4,0,0,0-.1-.3v-.3c0-.2.1-.3.1-.4h.1c0-.1,0-.1-.1-.2s-.1-.2-.1-.4a.6.6,0,0,1,.1-.4h0c0-.1-.1-.1-.1-.2s-.1-.2-.1-.4v-.3c0-.1,0-.1-.1-.2v-.2l-.2-.3c0-.2.1-.4.1-.6h0l-.3-.4v-.3a.3.3,0,0,1-.1-.2c0-.1-.1-.2-.1-.3s0-.1-.1-.2h0c-.1-.2-.2-.3-.2-.4l-.2-.3v-.2a.1.1,0,0,1-.1-.1h-.7a.5.5,0,0,1-.4-.2H64.9c-.1,0-.2.1-.3,0l-.5-.2H61.2l-.4-.2h-3l-.3-.2c-.1,0-.2,0-.2-.1h-.6l-.4-.2h-.7l-.4-.2H52.8l-.4-.2H48.3l-.4-.3h-.7l-.4-.2h-.2a.4.4,0,0,1-.5.1H44a.1.1,0,0,1-.1-.1h-.6l-.5-.2h-.5a.1.1,0,0,0-.1-.1h-.1a.4.4,0,0,1-.5.1H39.3l-.3-.2H36.5l-.4-.2h-.7l-.5-.2h-.2c-.1,0-.2.1-.4,0H31.5l-.5-.2a.1.1,0,0,0-.1-.1H29.5c-.1,0-.2,0-.2-.1a.1.1,0,0,1-.1.1.4.4,0,0,1-.5.1h-.6a.5.5,0,0,1-.4-.2h-.2a.4.4,0,0,1-.5.1H22.5a.1.1,0,0,1-.1.1h-.5l-.5-.2h0c-.1,0-.1,0-.1.1s-.3.1-.5,0H18.6l-.3.2h-.1l-.2.3-.4.2h-.1c-.1,0-.1.1-.1.2l-.2.3-.3.2a.1.1,0,0,1-.1.1h0a.7.7,0,0,1-.1.5.8.8,0,0,1-.4.4h0c-.1.1-.1.1-.1.2a.4.4,0,0,1-.1.3l-.3.4a.1.1,0,0,1-.1.1h0v.5l-.2.3V52a.3.3,0,0,0-.1.2.4.4,0,0,0-.1.3h0v.5l-.4.4h0v.5h0a.7.7,0,0,1,.1.5l-.4.4h0c0,.1.1.2.1.4v.6a.9.9,0,0,1-.3.5h-.1v.6h.1v.4c0,.1.1.1.1.2v.8a.1.1,0,0,0-.1.1v.4a.3.3,0,0,0-.1.2c0,.1,0,.1.1.2v1.1a.4.4,0,0,1,.1.3h.1a.8.8,0,0,1,.2.4v.4a.3.3,0,0,0,.1.2h0a.5.5,0,0,1,.2.4.6.6,0,0,1,.1.4h0v.2a24725056409671.1,24725056409671.1,0,0,0,.2.6v.2a.8.8,0,0,1,.1.4c0,.1.1.1.1.2v.2a.2.2,0,0,1,.2.2l.2.2v.3h.2l.2.2.2.2.3.2.4.4.2.2a.3.3,0,0,0,.1.2l.2.2h.3c.1.1.2.2.2.3h.2l.5.2a.2.2,0,0,1,.2.2h.2l.3.2h.2l.3.2h.2a.1.1,0,0,0,.1.1h.4l.3.2h.2l.3.3h.7c0,.1.1.1.2.1h.3l.4.3h.4c0,.1.1.1.2.1l.3.2h1.3l.3.2h.8l.3.2h.8l.4.3h.6l.3.2h1.4a.4.4,0,0,1,.5,0h2.7l.5.2h1.2c.2,0,.3.2.4.2h2.9l.5.3h2.9l.4.2h.7l.5.2h1.8l.4.2h1.2a.1.1,0,0,0,.1-.1l.5-.2h0m-.5,1.1H46.1l-.5-.2H43.8l-.5-.2H39.2a.9.9,0,0,1-.5-.3H36.4c0-.1-.1-.1-.2-.1h-.4l-.4-.2h-.7l-.3-.2h-.2l-.5-.3H32.5c0-.1,0,0-.1,0h-1L31,74H29.2l-.4-.2h-.7l-.5-.3H27l-.3-.2h-.8l-.3-.2H23.8l-.3-.2h-.2l-.4-.3H21.7l-.4-.3a.1.1,0,0,1-.1-.1l-.3-.2h-.7l-.3-.2-.2-.2-.3-.2h-.2l-.3-.2h-.2a.7.7,0,0,1-.6-.2l-.3-.3c0-.1,0-.1-.1-.1s-.1-.1-.1-.2l-.3-.2-.3-.3h-.1c-.1-.2-.3-.3-.4-.4l-.2-.2-.3-.2a.1.1,0,0,0-.1-.1l-.3-.3-.3-.4a.1.1,0,0,0-.1-.1v-.2c-.1-.1-.2-.2-.2-.3s-.1-.3-.2-.4v-.2l-.2-.4v-.2l-.2-.3v-.2a.8.8,0,0,1-.1-.4V63h0a2,2,0,0,1-.3-.8v-.2h-.1a.8.8,0,0,1-.2-.4v-.2a.8.8,0,0,1-.1-.4c-.1-.2,0-.3,0-.4v-.2c0-.1,0-.1-.1-.2v-.4a.6.6,0,0,1,.1-.4V59a.6.6,0,0,1,.1-.4h0v-.2a.6.6,0,0,1-.1-.4h0a.9.9,0,0,1-.1-.5v-.6l.3-.5a.1.1,0,0,0,.1-.1h0c-.1-.1-.1-.2-.1-.4h0c0-.1-.1-.3,0-.5a.9.9,0,0,1,.3-.5h0c0-.1-.1-.3,0-.5v-.2a.6.6,0,0,1,.1-.4c0-.2.2-.3.3-.4h.1a.4.4,0,0,1,0-.5c0-.1.1-.2.1-.3v-.2h.1c0-.2.1-.3.1-.4V51a.6.6,0,0,1,.1-.4l.3-.4a.1.1,0,0,1,.1-.1v-.2c0-.1.1-.2.1-.4a.5.5,0,0,1,.4-.3.1.1,0,0,1,.1-.1h0a1.1,1.1,0,0,1,.1-.5c.1-.2.2-.2.3-.3h.1c.1-.1.1-.1.1-.2s.2-.2.2-.3l.5-.3h.1c.1-.1.1-.1.1-.2l.3-.3.7-.3h3a.5.5,0,0,1,.4.2h5.2l.6-.2.4.2h.1c.1,0,.3,0,.3.1h.3l.6-.2h1.7a.5.5,0,0,1,.4.2.1.1,0,0,1,.1.1h1a.1.1,0,0,0,.1.1H35a.5.5,0,0,1,.4.2c.1,0,.1,0,.1.1a.1.1,0,0,0,.1-.1c.2,0,.3-.1.5,0h1.3a.3.3,0,0,1,.4,0h4a.4.4,0,0,1,.5-.1h.5l.5.2H44l.3.2h1.4l.3.2h.3a.4.4,0,0,1,.5-.1.5.5,0,0,1,.4.2c.1,0,.1,0,.1.1h.1c.2,0,.3-.1.5,0l.5.2a.1.1,0,0,0,.1.1h.3c0,.1.1.1.2.1a.1.1,0,0,0,.1-.1c.1,0,.3-.1.5,0H50a.1.1,0,0,1,.1.1h2.3a.5.5,0,0,1,.4.2c.1,0,.1,0,.1.1h2.3l.4.2c.1,0,.1,0,.1.1h1.7l.4.2h1.4c.1,0,.3-.1.5,0h1.1l.4.2h1.3l.4.2h.4c.1,0,.2,0,.2.1h.7l.4.3h1.8l.5.2a.1.1,0,0,0,.1.1h.7l.5.4c.1.1.1.3.2.4s.1.1.1.2.1.3.2.4h.1c0,.1.1.3.1.4a.3.3,0,0,0,.1.2.8.8,0,0,0,.1.4h0a.1.1,0,0,0,.1.1l.3.5a.7.7,0,0,1-.1.5h0c.1.2.1.3.2.4v.6a.1.1,0,0,0,.1.1c0,.2.1.3.1.5v.4a.3.3,0,0,0-.1.2.1.1,0,0,1,.1.1c0,.1.1.3.1.4a4.3,4.3,0,0,1-.1.5h-.1c0,.1.1.2.1.3v1.4h0a1.1,1.1,0,0,1,.2.6c-.1.1-.1.3-.2.4s0,.1-.1.1.1.1.1.2v.4c0,.2-.1.3-.1.5h-.1c0,.1-.1.3-.1.4a.3.3,0,0,0-.1.2h.1V66c0,.1-.1.3-.1.4h-.1v1.2l-.2.5h0a.1.1,0,0,1-.1.1v.4c-.1.2-.2.3-.2.4s-.1.1-.1.2l-.4.4H68V70c-.1.1-.1.3-.2.4v.2a.8.8,0,0,1-.1.4l-.5.3H67a.8.8,0,0,1-.4.4h0c-.1.2-.1.4-.3.5a.6.6,0,0,1-.5.2h-.2l-.4.2a.1.1,0,0,1-.1.1l-.3.4H63.5l-.3.2h-.8l-.3.2H60.8a.5.5,0,0,1-.4.2H58.6a.8.8,0,0,1-.4.4h-.6c-.2.1-.3,0-.5,0h-.7l-.5.3h-.5a.1.1,0,0,1-.1-.1H54l-.4.2h-.4c-.1,0-.2-.1-.2,0h-.7l-.4.2h-.7l-.5.2-.5-.2H47.8l-.5.2" transform="translate(-11.9 -5.1)"/><path class="cls-3" d="M28.8,47.5h0m.5.6h0m1.7.3h0m3.8.6h0m11.4,1h0m2.2.4h0m.6.1h0m3.9.6h0m1.7.2h0m-2.3.3h0m7.3,1.2h0m2.2.4h0m5.1.2h0m-52.1.7h0m-.3,1h0m-.1.1h0m-.6,1h0m.5.6h0m54.4.1h0m.6.4h0M13.9,60.2h0m.5,1h0m4.3,7.7h0m48.2,1.5h0m.1.9h0m-1.2.4h0m-.1.8h0M34.4,74.1h0m0,0h0m.5.2h0m20.9.8h0m2.9.1h0M37,75.3h0m6.9.3h0m3.9-.2h3l.4-.2h.7l.4-.2h1.3l.4-.2h1.8l.5-.3H58a.9.9,0,0,1,.5-.3h1.1c.2-.1.4,0,.5,0h.1a.1.1,0,0,0,.1-.1l.4-.2h1.6l.3-.2h1.3l.3-.2h.2v-.2q0-.2.3-.3l.4-.2h.6l.2-.5.3-.3h.1a.5.5,0,0,1,.4-.3h.1v-.2a.4.4,0,0,1,.1-.3v-.2c0-.1.1-.2.1-.4l.3-.3h.1l.2-.2V68h0c.1-.1.1-.3.2-.5v-.2a.4.4,0,0,1,.1-.3v-.3c0-.1.1-.2.1-.3V66c0-.1.1-.1.1-.2h0a.7.7,0,0,1-.1-.5c0-.1.1-.2.1-.3v-.2c0-.2.1-.3.1-.4s.1-.1.1-.2h0a.6.6,0,0,1-.1-.4.8.8,0,0,1,.2-.5h0a.8.8,0,0,1-.2-.5c0-.1.1-.2.1-.3v-.8a.4.4,0,0,0-.1-.3v-.3c0-.2.1-.3.1-.4h.1c0-.1,0-.1-.1-.2s-.1-.2-.1-.4a.6.6,0,0,1,.1-.4h0c0-.1-.1-.1-.1-.2s-.1-.2-.1-.4v-.3c0-.1,0-.2-.1-.2v-.2l-.2-.3c0-.2.1-.4.1-.6h0l-.3-.4v-.3a.3.3,0,0,1-.1-.2c0-.1-.1-.2-.1-.3s0-.1-.1-.2h0c-.1-.2-.2-.3-.2-.4l-.2-.3v-.2a.1.1,0,0,1-.1-.1h-.7a.5.5,0,0,1-.4-.2H64.9c-.1,0-.2.1-.3,0l-.5-.2H61.2l-.4-.2h-3l-.4-.2a.1.1,0,0,1-.1-.1h-.6l-.4-.2h-.7l-.4-.2H52.8l-.4-.2H48.3l-.4-.3h-.7l-.4-.2h-.2a.4.4,0,0,1-.5.1H44a.1.1,0,0,1-.1-.1h-.6l-.5-.2h-.5a.1.1,0,0,0-.1-.1h-.1a.4.4,0,0,1-.5.1H39.3l-.3-.2H36.5l-.4-.2h-.7l-.5-.2h-.2c-.1,0-.2.1-.4,0H31.5l-.5-.2a.1.1,0,0,0-.1-.1H29.5c-.1,0-.2,0-.2-.1a.1.1,0,0,1-.1.1.4.4,0,0,1-.5.1h-.6a.5.5,0,0,1-.4-.2h-.2a.4.4,0,0,1-.5.1H22.5a.1.1,0,0,1-.1.1h-1c-.1,0-.1,0-.1.1s-.3.1-.5,0H18.6l-.3.2h-.1l-.2.3-.4.2h-.1c-.1,0-.1.1-.1.2l-.2.3-.3.2a.1.1,0,0,1-.1.1h0a.7.7,0,0,1-.1.5.8.8,0,0,1-.4.4h0c-.1.1-.1.1-.1.2a.4.4,0,0,1-.1.3l-.3.4a.1.1,0,0,1-.1.1h0v.5l-.2.3V52a.3.3,0,0,0-.1.2.4.4,0,0,0-.1.3h0v.5l-.4.4h0v.5h0a.7.7,0,0,1,.1.5l-.4.4h0c0,.1.1.2.1.4v.6a.9.9,0,0,1-.3.5h-.1v.6h0c.1.1.1.2.1.4s.1.1.1.2v.8a.1.1,0,0,0-.1.1v.4a.3.3,0,0,0-.1.2c0,.1,0,.1.1.2v1.1a.4.4,0,0,1,.1.3h.1a.8.8,0,0,1,.2.4v.4a.3.3,0,0,0,.1.2h0a.5.5,0,0,1,.2.4.6.6,0,0,1,.1.4h0v.2a24725056409671.1,24725056409671.1,0,0,0,.2.6,24725056409683.4,24725056409683.4,0,0,0,.2.6c0,.1.1.1.1.2v.2a.2.2,0,0,1,.2.2l.2.2v.3h.2l.2.2.2.2.3.2.4.4.2.2c0,.1.1.1.1.2a.1.1,0,0,1,.1.1h.4c.1.1.2.2.2.3h.2l.5.2a.2.2,0,0,1,.2.2h.2l.3.2h.2l.3.2h.2a.1.1,0,0,0,.1.1h.4l.3.2h.2l.3.3h.7c0,.1.1.1.2.1h.3l.4.3h.4c0,.1.1.1.2.1l.3.2h1.3l.3.2h.8l.3.2h.8l.4.3h.6l.3.2h1.4a.4.4,0,0,1,.5,0h2.7l.5.2h1.2c.2,0,.3.2.4.2h2.9l.5.3h2.9l.4.2h.7l.5.2h1.8l.4.2h1.2a.1.1,0,0,0,.1-.1l.5-.2h0m7.5.4h0m-8.1.7H46.1l-.5-.2H43.8l-.5-.2H39.2a.9.9,0,0,1-.5-.3H36.4c0-.1-.1-.1-.2-.1h-.4l-.4-.2h-.7l-.3-.2h-.2l-.5-.3H32.5c0-.1,0,0-.1,0h-1L31,74H29.2l-.4-.2h-.7l-.5-.3H27l-.3-.2h-.8l-.3-.2H23.8l-.3-.2h-.2l-.4-.3H21.7l-.4-.3a.1.1,0,0,1-.1-.1l-.3-.2h-.7l-.3-.2-.2-.2-.3-.2h-.2l-.3-.2h-.2a.7.7,0,0,1-.6-.2l-.3-.3c0-.1,0-.1-.1-.1s-.1-.1-.1-.2h-.1l-.2-.2-.3-.3h-.1c-.1-.2-.3-.3-.4-.4l-.2-.2-.3-.2c0-.1-.1-.1-.1-.2l-.3-.2-.3-.4a.1.1,0,0,0-.1-.1v-.2c-.1-.1-.2-.2-.2-.3s-.1-.3-.2-.4v-.2l-.2-.4v-.2a.4.4,0,0,1-.1-.3c-.1-.1-.1-.1-.1-.2a.8.8,0,0,1-.1-.4V63h0a2,2,0,0,1-.3-.8v-.2h-.1a.8.8,0,0,1-.2-.4v-.2a.8.8,0,0,1-.1-.4c-.1-.2,0-.3,0-.4v-.2h0c0-.1,0-.1-.1-.2v-.4a.6.6,0,0,1,.1-.4V59a.6.6,0,0,1,.1-.4h0v-.2a.6.6,0,0,1-.1-.4h0a.9.9,0,0,1-.1-.5v-.6l.3-.5a.1.1,0,0,0,.1-.1h0c-.1-.1-.1-.2-.1-.4h0c0-.1-.1-.3,0-.5a.9.9,0,0,1,.3-.5h0c0-.1-.1-.3,0-.5v-.2a.6.6,0,0,1,.1-.4c0-.2.2-.3.3-.4a.1.1,0,0,1,.1-.1h0a.4.4,0,0,1,0-.5c0-.1.1-.2.1-.3v-.2h.1c0-.2.1-.3.1-.4V51a.6.6,0,0,1,.1-.4l.3-.4a.1.1,0,0,1,.1-.1v-.2c0-.1.1-.2.1-.4a.5.5,0,0,1,.4-.3.1.1,0,0,1,.1-.1h0a1.1,1.1,0,0,1,.1-.5c.1-.2.2-.2.3-.3h.1c.1-.1.1-.1.1-.2s.2-.2.2-.3l.5-.3h.1c.1-.1.1-.1.1-.2l.3-.3.7-.3h2.9a.6.6,0,0,1,.5.2h5.2l.6-.2.4.2h.1c.1,0,.3,0,.3.1h.3l.6-.2h1.7a.5.5,0,0,1,.4.2.1.1,0,0,1,.1.1h1a.1.1,0,0,0,.1.1H35a.5.5,0,0,1,.4.2c.1,0,.1,0,.1.1a.1.1,0,0,0,.1-.1c.2,0,.3-.1.5,0h1.3a.3.3,0,0,1,.4,0h4a.4.4,0,0,1,.5-.1h.5l.5.2H44l.3.2h1.4l.3.2h.3a.4.4,0,0,1,.5-.1.5.5,0,0,1,.4.2c.1,0,.1,0,.1.1h.1c.2,0,.3-.1.5,0l.5.2a.1.1,0,0,0,.1.1h.3c0,.1.1.1.2.1a.1.1,0,0,0,.1-.1c.1,0,.3-.1.5,0H50a.1.1,0,0,1,.1.1h2.3a.5.5,0,0,1,.4.2c.1,0,.1,0,.1.1h2.3l.4.2c.1,0,.1,0,.1.1h.6l.4.2h.7l.4.2h1.4c.1,0,.3-.1.5,0h1.1l.4.2h1.3l.4.2h.4c.1,0,.2,0,.2.1h.7l.4.3h1.8l.5.2a.1.1,0,0,0,.1.1h.7l.5.4c.1.1.1.3.2.4s.1.1.1.2.1.3.2.4h.1c0,.1.1.3.1.4a.3.3,0,0,0,.1.2.8.8,0,0,0,.1.4h0a.1.1,0,0,0,.1.1l.3.5a.7.7,0,0,1-.1.5h0c.1.2.1.3.2.4v.6a.1.1,0,0,0,.1.1c0,.2.1.3.1.5v.4a.3.3,0,0,0-.1.2.1.1,0,0,1,.1.1c0,.1.1.3.1.4a4.3,4.3,0,0,1-.1.5h-.1c0,.1.1.2.1.3v1.4h0a1.1,1.1,0,0,1,.2.6c-.1.1-.1.3-.2.4s0,.1-.1.1.1.1.1.2v.4c0,.2-.1.3-.1.5h-.1c0,.1-.1.3-.1.4a.3.3,0,0,0-.1.2h.1V66c0,.1-.1.3-.1.4h-.1v1.2l-.2.5h0a.1.1,0,0,1-.1.1v.4c-.1.2-.2.3-.2.4s-.1.1-.1.2l-.4.4H68V70c-.1.1-.1.3-.2.4v.2a.8.8,0,0,1-.1.4l-.5.3H67l-.4.3h0c-.1.2-.1.4-.3.5a.6.6,0,0,1-.5.2h-.1l-.5.3a.1.1,0,0,1-.1.1l-.3.4H63.5l-.3.2h-.8l-.3.2H60.8a.5.5,0,0,1-.4.2H58.6a.8.8,0,0,1-.4.4h-.6c-.2.1-.3,0-.5,0h-.7l-.5.3h-.5a.1.1,0,0,1-.1-.1H54l-.4.2h-.4c-.1,0-.2-.1-.2,0h-.7l-.4.2h-.7l-.5.2-.5-.2H47.8l-.6.2" transform="translate(-11.9 -5.1)"/><path class="cls-2" d="M62,73.1c1.1,2.6,3.4,1.3,2.1-1.1L62,73.1" transform="translate(-11.9 -5.1)"/><path class="cls-3" d="M63.5,74.6a1,1,0,0,0,.8-.4,2.4,2.4,0,0,0-.1-2.3h-.1a2,2,0,0,1,.1,2.1.9.9,0,0,1-.8.4,2,2,0,0,1-1.3-1.4H62c.3.9.8,1.4,1.4,1.5h.1" transform="translate(-11.9 -5.1)"/><path class="cls-3" d="M61.9,73.1a3.1,3.1,0,0,0,.6,1.3l.8.5h.9c.3-.1.4-.4.5-.7a1.1,1.1,0,0,0,.1-.8,2.2,2.2,0,0,0-.6-1.3H64c.1.2.1.5.2.7v.6c-.1.3-.2.7-.4.8h-.4L63,74l-.5-.4-.4-.6h-.2" transform="translate(-11.9 -5.1)"/><path class="cls-5" d="M61,65.9h0a1,1,0,0,0,.4-.5,1.4,1.4,0,0,0,.2-.7,1.1,1.1,0,0,0-.3-.7,1.2,1.2,0,0,0-.5-.5l-.7-.2H60l-.7.3a1.2,1.2,0,0,0-.5.5,1.7,1.7,0,0,0-.1.7c-.1,0,0,.1.1.1h.1a.8.8,0,0,1,.4-.4.5.5,0,0,1,.4-.2h.7a.7.7,0,0,1,.4.5.9.9,0,0,1,.1.5,1.1,1.1,0,0,1-.1.5h0c0,.1.1.1.1.2H61" transform="translate(-11.9 -5.1)"/><path class="cls-5" d="M50.6,68.4l.6-.2.6-.4.3-.6a.1.1,0,0,0-.1-.1h-.1l-.5.3H50.3c-.2-.2-.4-.4-.4-.6v-.5l.2-.5h0c0-.1,0-.2-.1-.2h-.1l-.5.5a1.1,1.1,0,0,0-.2.6,1.1,1.1,0,0,0,.1.8,2.1,2.1,0,0,0,.4.6l.8.3h.1" transform="translate(-11.9 -5.1)"/><path class="cls-2" d="M68.7,61c3.1-1,1.7-3.8-1.2-2.5" transform="translate(-11.9 -5.1)"/><path class="cls-3" d="M68.7,61.1c1-.4,1.7-.9,1.8-1.6a1.2,1.2,0,0,0-.4-1.1,2.7,2.7,0,0,0-2.6.1h.1a2.1,2.1,0,0,1,2.4,0,1,1,0,0,1,.4.9c-.1.6-.7,1.1-1.7,1.5Z" transform="translate(-11.9 -5.1)"/><path class="cls-3" d="M68.7,61.1a2.5,2.5,0,0,0,1.6-.6,1.6,1.6,0,0,0,.5-.8c0-.1.1-.1.1-.2v-.3a.4.4,0,0,0-.1-.3c0-.1,0-.2-.1-.2A1,1,0,0,0,70,58a1.8,1.8,0,0,0-1-.2,2.5,2.5,0,0,0-1.5.6c0,.1-.1.1,0,.2h.8a.8.8,0,0,1,.7,0,1.1,1.1,0,0,1,1,.5v.4c0,.2-.1.3-.2.5l-.5.5-.6.4h0c-.1.1-.1.1-.1.2Z" transform="translate(-11.9 -5.1)"/><path class="cls-2" d="M66.6,67.4c2.3,1.6,3.5-.8,1.1-2.1l-1.1,2.1" transform="translate(-11.9 -5.1)"/><path class="cls-3" d="M68,68h.6a1.1,1.1,0,0,0,.5-.9c0-.7-.5-1.3-1.4-1.8h0c.8.5,1.3,1.1,1.3,1.7a.8.8,0,0,1-.5.7c-.5.3-1.2.1-1.9-.4h-.1A2.9,2.9,0,0,0,68,68" transform="translate(-11.9 -5.1)"/><path class="cls-3" d="M66.5,67.5a2.3,2.3,0,0,0,1.3.7h.8l.4-.3h.2v-.2a3.1,3.1,0,0,0,.1-.9,2,2,0,0,0-.4-.8,2.4,2.4,0,0,0-1.3-.7h-.1l.5.4.3.5c.2.4.3.7.2.9l-.3.3H67.2l-.6-.2h0a.1.1,0,0,0-.1.1h0" transform="translate(-11.9 -5.1)"/><path class="cls-5" d="M52.7,63h.1a.7.7,0,0,1,.1-.5.9.9,0,0,1,.1-.5,1.2,1.2,0,0,1,.5-.5h.7a.5.5,0,0,1,.4.3l.3.4h.2a1.3,1.3,0,0,0-.1-.6c0-.2-.2-.4-.3-.6l-.7-.4h-.8a1,1,0,0,0-.6.5,2.1,2.1,0,0,0-.4.6,2.2,2.2,0,0,0,.1.8l.3.5h.1" transform="translate(-11.9 -5.1)"/><path class="cls-5" d="M47.2,75.7a.1.1,0,0,0,.1-.1l.5-.2h4.1l.4-.2h1.2a.1.1,0,0,1,.1-.1h.3a.1.1,0,0,0,.1-.1h1.8l.3-.2H58a.9.9,0,0,1,.5-.3h1.7a.1.1,0,0,0,.1-.1l.4-.2h1.2a.1.1,0,0,1,.1-.1h0a.9.9,0,0,0-.1-.5h.2L64,72h.2l.3.5h.1l.2-.2.3-.2h.7c0-.1.1-.2.1-.4s.1,0,.1-.1h.1l.3-.2h0a.5.5,0,0,1,.4-.3h.1v-.2a.4.4,0,0,1,.1-.3v-.2c0-.1.1-.2.1-.4l.3-.3h.1l.2-.2v-.3h0v-.2h-.2l-1-.4h-.4l-.5.3-.4.4-.5.2-.6.2-.5.3-.5.2-.5.3H61.8l-.6.3H60.1l-.6.2c-.2,0-.3.3-.5.3H57.3c-.2,0-.4.3-.5.3h-.6l-.6.2H55l-.5.3H53.3l-.5.2h-.6l-.6.3H48.8l-.6.3H46.8a3.4,3.4,0,0,1-2.2-1.2c-3.2-3.1-2.2-9.5-2.4-9.5h0a10.7,10.7,0,0,0-2.1,4.8c-.3,2.7,1,4,.1,4.6l-.9.4h-.2l-.5-.2-.6-.2h-.6A2.6,2.6,0,0,1,35,67.9c.1-2.1.2-4.7.3-5.8A4.8,4.8,0,0,1,40.1,58h.8l3.4.5,6,.2c6.5,0,15.6-.5,18.2-2l-.2-.3h0v-.2h-.1c-1.9.8-5.4,1.3-10.7,1.6H50.3a46.5,46.5,0,0,1-6-.2,69.9,69.9,0,0,1-9-1.4c-2.5,6.5-1.4,14.6-.6,18.3h.8c.2,0,.3.2.4.2h2.9l.5.3h2.9l.4.2h.7l.5.2h1.8l.4.2h1.2" transform="translate(-11.9 -5.1)"/><path class="cls-3" d="M47,75.7h0m-.9-.1h0m2.8,0h0m-5,0h-.1l-.5-.2h0l.5.2h.1m6.8,0h0m1.1-.2h.1l.4-.2-.4.2h-.1m-.1,0h0m-9,0h-.1l-.4-.2h0l.4.2h.1m0,0h0m2.9,0h0m0,0h0m0,0h0m7.3-.1h0m.7,0h0m-12.4-.1h0m13.4,0h0m-14.7,0h0m15.9-.1h0l.3-.2-.3.2h0m-15.7,0h0m-.6,0h0m17.9-.3h0m.1,0H58a.9.9,0,0,1,.5-.3h0a.9.9,0,0,0-.5.3h-.5m-1.1,0h0m-18,0h0m-.2,0h0m-1.6-.3h0m-1.7-.2h0m-.1-.1h0m25.4,0h0a.1.1,0,0,0,.1-.1l.4-.2h0l-.4.2a.1.1,0,0,1-.1.1m1.7-.5h0m2.7-1.4.2-.2.3-.2-.3.2-.2.2m.9-.6h.3c0-.1.1-.2.1-.4s-.1.3-.1.4h-.3m.6-.7.3-.2h0a.5.5,0,0,1,.4-.3h0a.5.5,0,0,0-.4.3h-.1a.2.2,0,0,1-.2.2m.8-.5v-.2a.4.4,0,0,1,.1-.3v-.2c0-.1.1-.2.1-.4l.3-.3h.1l.2-.2v-.3h0v.3l-.2.2h-.1l-.3.3c0,.2-.1.3-.1.4V70a.4.4,0,0,0-.1.3v.2h0m1.4-14.2v-.2h0v.2" transform="translate(-11.9 -5.1)"/><path class="cls-3" d="M47.3,76.1H46.1l-.6-.3H43.8a.9.9,0,0,1-.5-.3h-.6l-.6-.2H39.3c-.2,0-.3-.3-.5-.3h-.6l-.6-.2H35.9c-.2,0-.3-.3-.5-.3h-.6v-.5h.8c.2,0,.3.2.4.2h2.9l.5.3h2.9l.4.2h.7l.5.2h1.8l.4.2h1.2a.1.1,0,0,0,.1-.1l.5-.2h4.1l.4-.2h1.2a.1.1,0,0,1,.1-.1h.3a.1.1,0,0,0,.1-.1h1.8l.3-.2H58a.9.9,0,0,1,.5-.3h1.7a.1.1,0,0,0,.1-.1l.4-.2h1.2a.1.1,0,0,1,.1-.1h0l.2.4H60.8c-.2.1-.3.3-.5.3H59.1l-.5.2c-.2,0-.3.3-.5.4H56.3a.9.9,0,0,1-.5.3h-.6l-.5.2h-.6l-.6.2H52.4l-.6.2h-.6l-.5.2H47.8c-.2,0-.4.3-.5.3m-3.4-.5h0m11.9-.5h0m8.9-2.3a.5.5,0,0,0-.2-.4h.1l.2-.2.3-.2h.7c0-.1.1-.2.1-.4s.1,0,.1-.1h.1a.2.2,0,0,0,.2-.2h.1a.5.5,0,0,1,.4-.3h.1v-.2a.4.4,0,0,1,.1-.3v-.2c0-.1.1-.2.1-.4l.3-.3h.1l.2-.2v-.3h0v-.2h.5a.9.9,0,0,0-.1.5l-.3.5c-.1.2-.3.3-.4.4s-.1.4-.2.6l-.3.5c-.1.2-.4.2-.5.3l-.4.4c-.1.2-.1.5-.2.6l-.6.2-.5.3-.3.3m2.2-2.4h0m1.6-13.7-.2-.3h0v-.2h-.1l.3-.2h.1a1.3,1.3,0,0,1,.1.6c0,.1.1.1.2.2l-.4.2" transform="translate(-11.9 -5.1)"/><path class="cls-5" d="M63.5,74.2h.3c.2-.1.3-.5.4-.8v-.6c-.1-.2-.1-.5-.2-.7l-1.9,1h0l.4.6.5.4.4.2h.1" transform="translate(-11.9 -5.1)"/><path class="cls-3" d="M63.7,74.5h.1c.2-.1.6-.9.8-1s-.2-.5,0-.6h.1a.5.5,0,0,0-.2-.4l-.3-.5H64c.1.2.1.5.2.7v.6c-.1.3-.2.7-.4.8h-.4L63,74l-.5-.4-.4-.6h-.2a.9.9,0,0,1,.1.5l.2.4.3-.2h0c.1,0,.2.2.3.4s.1.3.2.3h.7" transform="translate(-11.9 -5.1)"/><path class="cls-5" d="M67.9,67.6h.4l.3-.3c.1-.2,0-.5-.2-.9v-.2c0,.1-.1.2-.1.3l-.6.3-.3.4a.5.5,0,0,0-.2.4h.8" transform="translate(-11.9 -5.1)"/><path class="cls-5" d="M68.6,65.6v-.3c0,.1,0,.2-.1.2h.1" transform="translate(-11.9 -5.1)"/><path class="cls-3" d="M69.1,66h0c0-.2-.1-.4-.1-.6a1.4,1.4,0,0,0,.2-.6c0-.1.2-.3.2-.5V64a.8.8,0,0,1-.1.4l-.3.5c0,.2-.3.3-.4.4h0v.3l.4.3h.1" transform="translate(-11.9 -5.1)"/><path class="cls-3" d="M68.1,68.3h.4l.2-.5a21996312964373.5,21996312964373.5,0,0,1,.2-1.2c0-.1.1-.2.2-.4H69l-.4-.3h-.1a.6.6,0,0,1-.1.4v.4c.2.4.3.7.2.9l-.3.3H67.1c0,.1,0,.2-.1.2h-.2l1,.4h.3" transform="translate(-11.9 -5.1)"/><path class="cls-4" d="M18.3,51.8l.3-.8a11.6,11.6,0,0,1-2-1.3l-.3.2h0c-.1.1-.1.1-.1.2a8,8,0,0,0,2.1,1.7" transform="translate(-11.9 -5.1)"/><path class="cls-6" d="M16.2,50.1c0-.1,0-.1.1-.2h0l.3-.2h0l-.3.2h0c-.1.1-.1.1-.1.2h0" transform="translate(-11.9 -5.1)"/><path class="cls-6" d="M16.2,50.1c0-.1,0-.1.1-.2h0l.3-.2-.3-.3c0,.1-.1.1-.1.2H16c.1.1.1.2.2.4" transform="translate(-11.9 -5.1)"/><path class="cls-5" d="M18.3,51.9h0a8,8,0,0,1-2.1-1.7h0a5.4,5.4,0,0,0,2.1,1.7" transform="translate(-11.9 -5.1)"/><path class="cls-3" d="M16.2,50.2h0" transform="translate(-11.9 -5.1)"/><path class="cls-3" d="M16.2,50.2h0c-.1-.2-.1-.3-.2-.4h.2c0-.1.1-.1.1-.2h0l-.2.2c-.1,0-.2,0-.2.1h0c0,.2.1.3.3.5" transform="translate(-11.9 -5.1)"/><path class="cls-7" d="M69.5,48.6a6.4,6.4,0,0,1-.4,6.1c-1.9,2.6-20.8,2.7-24.8,2.2C38,56.3,16,52.3,15.9,47.7s.7-5.3,4.4-6c7.8-1.5,24.4-1.4,28.4-.9s18.9,4.6,20.8,7.8" transform="translate(-11.9 -5.1)"/><g class="cls-8"><path class="cls-9" d="M62.7,58.5c.2-1,.5-2,.8-3a16,16,0,0,0,1-3.1,6.2,6.2,0,0,0,.1-3.5,5.1,5.1,0,0,0-.7-1.5,1.8,1.8,0,0,0-.5-.7l-.6-.6a22.3,22.3,0,0,0-5.3-3.8A32.9,32.9,0,0,0,51.3,40l-.2,1,1.6.2,1.6.4a18.8,18.8,0,0,1,3,1.2,17.1,17.1,0,0,1,5.2,3.7,3.8,3.8,0,0,1,.9,1.2,3.5,3.5,0,0,1,.6,1.4,5.2,5.2,0,0,1-.4,3c-.4.9-.9,1.9-1.4,2.8s-1.1,2-1.6,3l2.1.6" transform="translate(-11.9 -5.1)"/><path class="cls-9" d="M55.1,59.2a1.5,1.5,0,0,0,.1-.7l.3-.7a9.4,9.4,0,0,1,.6-1.5l.8-1.5a8,8,0,0,0,.8-1.6,8.7,8.7,0,0,0,.7-1.7,6.2,6.2,0,0,0,.2-1.9,5.8,5.8,0,0,0-.4-1.9,8.6,8.6,0,0,0-1-1.6,18.2,18.2,0,0,0-5.6-4.3A36.8,36.8,0,0,0,45,39.5l-.2,1a20.5,20.5,0,0,1,6.5,2,13.4,13.4,0,0,1,2.8,1.8l1.3,1.1.5.7.3.3c.1.1.2.2.2.3a6.4,6.4,0,0,1,.8,1.4,7.7,7.7,0,0,1,.2,1.5,6.5,6.5,0,0,1-1.1,2.9,10.1,10.1,0,0,1-.9,1.3,7.6,7.6,0,0,1-1.1,1.4c-.3.5-.7,1-1,1.6a5.6,5.6,0,0,0-.5.8,6.9,6.9,0,0,1-.4,1l2.7.6" transform="translate(-11.9 -5.1)"/><path class="cls-9" d="M46.6,59.5a7.5,7.5,0,0,1,0-1.5,8.3,8.3,0,0,1,.4-1.5,7.7,7.7,0,0,1,.7-1.6c.2-.5.5-1,.7-1.6a5.1,5.1,0,0,0,.7-1.7,5.3,5.3,0,0,0-.1-3.8l-.5-.9-.3-.3a.5.5,0,0,0-.2-.4l-1.2-1.4-1.3-1.2L44,42.5l-1.5-.9A31.8,31.8,0,0,0,39.3,40l-1.7-.6-1.7-.5-.2,1,1.6.4,1.7.6,1.5.7a8,8,0,0,1,1.6.8l1.4.9,1.3,1a13.4,13.4,0,0,1,2.3,2.5l.3.4.2.3.3.7a4,4,0,0,1,.3,1.5,7.1,7.1,0,0,1-1,3,31.4,31.4,0,0,0-1.8,3.1,11.3,11.3,0,0,0-1,3.7h2.2" transform="translate(-11.9 -5.1)"/><path class="cls-9" d="M37.2,57.3a9.8,9.8,0,0,1,.8-2.8,28.8,28.8,0,0,0,1.3-3.1,5.1,5.1,0,0,0,.3-1.7,3.7,3.7,0,0,0-.1-1.8,5.1,5.1,0,0,0-.7-1.7l-.5-.7-.6-.6a20.8,20.8,0,0,0-5.5-3.8,18.8,18.8,0,0,0-3-1.2,18.7,18.7,0,0,0-3.2-.8l-.2.7a20.4,20.4,0,0,1,6,2.1,16.1,16.1,0,0,1,2.8,1.7l2.3,2,.5.6a2.1,2.1,0,0,1,.4.6,3.8,3.8,0,0,1,.6,1.3,5.8,5.8,0,0,1-.3,2.9l-1.4,2.9L36,55.4a8.4,8.4,0,0,0-.5,1.7l1.7.2" transform="translate(-11.9 -5.1)"/><path class="cls-9" d="M15.6,51.3a3.5,3.5,0,0,1,.3-1.4,7.5,7.5,0,0,1,.7-1.2,11.5,11.5,0,0,1,2.1-2.3l1.2-1.2a3.8,3.8,0,0,0,.9-1.5A5.2,5.2,0,0,0,21,42a8.4,8.4,0,0,0-.5-1.7,24.3,24.3,0,0,0-3.3-5.6,34.1,34.1,0,0,0-4.7-4.6l-.6.8a17.4,17.4,0,0,1,2.6,1.9,16.7,16.7,0,0,1,2.3,2.3,23.5,23.5,0,0,1,1.9,2.5c.2.5.5,1,.7,1.4l.6,1.5.2.4a.8.8,0,0,0,.1.4c0,.2.1.5.1.7a3.9,3.9,0,0,1-.2,1.5,3.1,3.1,0,0,1-.9,1.1,5.8,5.8,0,0,1-1.2,1c-.8.7-1.8,1.3-2.6,2.1l-1.2,1.4a5.9,5.9,0,0,0-.4.8,3,3,0,0,0-.4.8l2.1.6" transform="translate(-11.9 -5.1)"/></g><path class="cls-3" d="M42,60.8l-.3,1.1a.8.8,0,0,1-.2.4c0,.2-.1.4-.1.6a4.3,4.3,0,0,0-.1.5c0,.2-.1.3-.1.5l-.3,1v.5a.9.9,0,0,1-.1.5,4.3,4.3,0,0,1-.1.5v.3a.4.4,0,0,1-.1.3c0,.3-.1.7-.1,1v.6c0,.2.1.4.1.6a4.3,4.3,0,0,1,.1.5h0a.4.4,0,0,1,.1.3,10.4,10.4,0,0,0,.4,1v.4a1.1,1.1,0,0,1-.1.5v.6h.1v.2c0,.1.1.1.1.2a7.1,7.1,0,0,0,.7.9h0a.1.1,0,0,1,.1.1l.2.2.4.4.3.2h.1l.3.4.3.4c.2.2.3.4.6.5s.5-.1.5-.3a.4.4,0,0,0-.2-.5h0c-.1,0-.1-.1-.2-.2l-.3-.4-.4-.5-.4-.3-.4-.3v-.2h-.2l-.6-.8c0-.1-.1-.1-.1-.2h-.1v-.3a1.3,1.3,0,0,0,.1-.6v-.3a.4.4,0,0,0-.1-.3,10.4,10.4,0,0,0-.4-1v-.2h0v-.2a1.1,1.1,0,0,0-.1-.5c0-.2-.1-.3-.1-.5v-.4c0-.3.1-.7.1-1v-.6a.6.6,0,0,0,.1-.4,1.3,1.3,0,0,0,.1-.6V65c.1-.3.1-.7.2-1a4.3,4.3,0,0,1,.1-.5v-.6a4.3,4.3,0,0,0,.1-.5,4.3,4.3,0,0,0,.1-.5,3.1,3.1,0,0,1,.1-1H42Z" transform="translate(-11.9 -5.1)"/><path class="cls-3" d="M69.5,48.6h0M39.2,40.9c-6.4,0-14.1.3-18.8,1.2s-4.3,2-4.1,5.5c0,.9,1.2,3,11.6,5.8a125.4,125.4,0,0,0,16.5,3.1,108.8,108.8,0,0,0,13.1,0c9.4-.5,11-1.7,11.3-2a5.8,5.8,0,0,0,.3-5.7h0c-.7-1.3-4.1-3-9.4-4.8a63,63,0,0,0-11.1-2.8c-1.5-.2-5.1-.3-9.4-.3M50.3,57.5a46.5,46.5,0,0,1-6-.2,126.2,126.2,0,0,1-16.6-3.1c-8.2-2.2-12.2-4.3-12.3-6.5s.7-5.6,4.8-6.4c8-1.6,24.8-1.4,28.5-.9s19.2,4.6,21.1,8a6.6,6.6,0,0,1-.4,6.6c-.9,1.2-4.9,2-11.9,2.4H50.3" transform="translate(-11.9 -5.1)"/><path class="cls-10" d="M50.4,56.7H47v-.2l.5-1.2h6.8l-1,1.4H50.4m5.6-.1c0-.1.1-.2.1-.3l.6-1.1,5.5-.4h0l-.8,1.4-3.9.2H56m-10.9,0h-.7c-1.5-.1-3.9-.5-6.8-1a4.2,4.2,0,0,0,.4-1,28.8,28.8,0,0,0,1.3-3.1l.3-1.1.8-.5,1.1-.4.8.4a8.3,8.3,0,0,0-2.1,1.5,1.9,1.9,0,0,0,.9,3.3,33.7,33.7,0,0,0,3.6.5h1l-.3.6-.3.8M63.3,56a.8.8,0,0,0,.2-.5l.3-.9c2.9-.3,5.1-.9,5.7-1.7h0a5.6,5.6,0,0,1-.7,1.6c-.2.2-1.2,1-5.5,1.5m-27.2-.8h-.5a12.4,12.4,0,0,1,1-2l1.2-1.5a24,24,0,0,1-1.1,2.3l-.6,1.3" transform="translate(-11.9 -5.1)"/><path class="cls-11" d="M61.4,56.3l1.9-.3a.8.8,0,0,0,.2-.5l.3-.9-1.6.2h0l-.8,1.4" transform="translate(-11.9 -5.1)"/><path class="cls-11" d="M53.3,56.7H56c0-.1.1-.2.1-.3l.6-1.1H54.3l-1,1.4" transform="translate(-11.9 -5.1)"/><path class="cls-11" d="M47,56.7v-.2l.5-1.2H45.7l-.3.6-.3.8H47" transform="translate(-11.9 -5.1)"/><path class="cls-11" d="M37.6,55.5a4.2,4.2,0,0,0,.4-1,28.8,28.8,0,0,0,1.3-3.1l.3-1.1a8.3,8.3,0,0,0-1.8,1.3,24,24,0,0,1-1.1,2.3l-.6,1.3,1.5.3" transform="translate(-11.9 -5.1)"/><path class="cls-3" d="M50.3,57.1c7.1,0,17.4-.5,18.8-2.4a6.3,6.3,0,0,0,1-2.9l-.6,1.1a5.6,5.6,0,0,1-.7,1.6c-.2.2-1.2,1-5.5,1.5l-1.9.3-3.9.2H44.4c-1.5-.1-3.9-.5-6.8-1l-1.5-.3h-.5c-.1.1-.1.3-.2.4l1.6.3a62.2,62.2,0,0,0,7.3,1.1,46.5,46.5,0,0,0,6,.2" transform="translate(-11.9 -5.1)"/><path class="cls-10" d="M19,50.2a5.1,5.1,0,0,1-2.3-1.7l.7-.8A14.2,14.2,0,0,0,19.6,49L19,50.2M16.3,47v-.9a.9.9,0,0,0,.3.7l-.3.2" transform="translate(-11.9 -5.1)"/><path class="cls-11" d="M16.7,48.5l.7-.8a3.2,3.2,0,0,1-.8-.9l-.3.2v.6a1.2,1.2,0,0,0,.4.9" transform="translate(-11.9 -5.1)"/><path class="cls-3" d="M18.8,50.6a.8.8,0,0,1,.2-.4,5.1,5.1,0,0,1-2.3-1.7,1.2,1.2,0,0,1-.4-.9V46.1c0-.1,0-.1-.1-.2a8.1,8.1,0,0,1,.1-1.6,7.1,7.1,0,0,0-.4,3.4c0,1,1.1,2,2.9,2.9" transform="translate(-11.9 -5.1)"/><path class="cls-12" d="M17.1,63.2a34.7,34.7,0,0,0,.6,4.5l.3.2a1,1,0,0,0,.4.5H19l.4.4.5.3.5.3.5.2c.2,0,.3.2.5.3s.3.3.5.3l.5.2.6.2c.1,0,.2.3.4.3l.5.3.5.3h1.2a.9.9,0,0,0,.5.3h.5l.5.3h.6c.2.1.3.4.5.4h.6l.5.3h.5l.6.2H31l.5.2.5.2h1.2l.6.2.5.3h0a46.7,46.7,0,0,1-.9-7.8c-.2-4.5.3-9.7,2.9-13.8a8,8,0,0,1,3.1-3l.8-.4a9.6,9.6,0,0,1,3.3-1L30,43.3a26.7,26.7,0,0,0-7.3,3.2l-.9.7a5.2,5.2,0,0,0-1.1,1c-1.4,1.4-4,7.4-3.6,15" transform="translate(-11.9 -5.1)"/><path class="cls-3" d="M43.3,48.4,30,43.4a23.9,23.9,0,0,0-7.2,3.2l-.9.6-1.2,1c-1.4,1.5-3.9,7.5-3.5,15a34.7,34.7,0,0,0,.6,4.5h0c.1.1.2.1.2.2l.2.2.2.2h.8l.3.2c0,.1.1.1.2.2h.2l.3.2H21l.2.2h.2l.3.2c0,.1.1.1.2.2H23a.2.2,0,0,1,.2.2l.2.2h.3l.3.2h1.8l.3.2h.6c0,.1.1.1.2.2h.9l.2.3h.8l.3.2h.8c0,.1.1.1.2.1h1.2c0,.1.1.1.2.1h2.3l.2.2h.3a42.7,42.7,0,0,1-1-7.7c-.2-5.7.8-10.4,2.9-13.9a10.2,10.2,0,0,1,3.2-3l.8-.4a14.7,14.7,0,0,1,3.1-1M34.4,74.6H34l-.3-.2H31.5l-.3-.2c-.1,0-.2,0-.2-.1h-.3a.2.2,0,0,1-.3,0H28.2l-.3-.3H26a.2.2,0,0,1-.2-.2H23.9l-.3-.2h-.2l-.3-.2a.2.2,0,0,0-.2-.2H21.8l-.2-.2-.2-.2h-.3l-.2-.2h-.6l-.2-.2-.2-.2h-.3l-.2-.2-.3-.2h-.8c-.1,0-.1-.1-.2-.2A.3.3,0,0,0,18,68c-.1-.1-.2-.1-.2-.2h-.2a30.6,30.6,0,0,1-.6-4.5c-.4-7.5,2.2-13.6,3.6-15.1l1.2-1,.9-.6A27.3,27.3,0,0,1,30,43.2h0l13.8,5.3h-.2a12.4,12.4,0,0,0-3.4,1l-.7.4a9.3,9.3,0,0,0-3.2,3c-2.1,3.5-3.1,8.1-2.9,13.8a44,44,0,0,0,1,7.8h0" transform="translate(-11.9 -5.1)"/><path class="cls-13" d="M33.2,69.6a40.7,40.7,0,0,1-.3-5c.1-4.8,1.1-8.8,3-11.9a8.5,8.5,0,0,1,2.4-2.6H38a8.2,8.2,0,0,0-2.4,2.5c-2.5,4.1-3.1,9.3-2.9,13.8.1,1,.1,2,.2,2.9l.3.3" transform="translate(-11.9 -5.1)"/><path class="cls-14" d="M33.6,73.7c-.2-1.2-.5-2.7-.7-4.4a2.5,2.5,0,0,0-1.7-.6H30.1c-2-.2-3-5.3-1.8-9.9.4-1.2.2-1.7-.1-1.7s-1.7,1.4-2.4,3.7-1.9,6.2-2.9,6.2a.7.7,0,0,1-.6-.4c-1.1-1.7-1.1-5.1-.1-8.7.3-1,.2-1.4-.1-1.4s-1.3,1.1-1.9,2.8a8.2,8.2,0,0,1-1.4,3.1,3.9,3.9,0,0,0-1.2,1.9c.1,1,.3,2,.5,3.1h.2c.1.1.2.2.2.3h.2l.5.2a.2.2,0,0,1,.2.2h.2l.3.2h.2l.3.2h.2a.1.1,0,0,0,.1.1h.4l.3.2h.2l.3.3h.7c0,.1.1.1.2.1h.3l.4.3h.4c0,.1.1.1.2.1l.3.2h1.3l.3.2h.8l.3.2h.8l.4.3h.6l.3.2h4.4" transform="translate(-11.9 -5.1)"/><path class="cls-15" d="M33.8,73.7a22.3,22.3,0,0,1-.6-4.1l-.3-.3c.2,1.7.5,3.2.7,4.4h.2" transform="translate(-11.9 -5.1)"/><path class="cls-3" d="M17.7,67.7h0m1,1.2h0M42.1,48.4,30,43.7a24.8,24.8,0,0,0-7.9,3.8,5.2,5.2,0,0,0-1.1,1c-1.6,1.6-4.8,9.7-2.9,19h.2c.1.1.2.2.2.3h.2l.5.2a.2.2,0,0,1,.2.2h.2l.3.2h.2l.3.2h.2a.1.1,0,0,0,.1.1h.4l.3.2h.2l.3.3h.7c0,.1.1.1.2.1h.3l.4.3h.4c0,.1.1.1.2.1l.3.2h1.3l.3.2h.8l.3.2h.8l.4.3h.6l.3.2h1.4a.4.4,0,0,1,.5,0h2.7a45,45,0,0,1-.9-9.1c.1-4.8,1.1-8.8,3-11.9A9.5,9.5,0,0,1,40,49.1a7.4,7.4,0,0,1,2.1-.7M34.9,75.1l-.7-.2h0l-.5-.3H32.5c0-.1,0,0-.1,0h-1L31,74H29.2l-.4-.2h-.7l-.5-.3H27l-.3-.2h-.8l-.3-.2H23.8l-.3-.2h-.2l-.4-.3H21.7l-.4-.3a.1.1,0,0,1-.1-.1l-.3-.2h-.7l-.3-.2-.2-.2-.3-.2h-.2l-.3-.2h-.2a.7.7,0,0,1-.6-.2l-.3-.3c0-.1,0-.1-.1-.1s-.1-.1-.1-.2h-.3v-.2a30.3,30.3,0,0,1,.1-12.9c.8-3.6,2.1-6.1,3-7a6.5,6.5,0,0,1,1.2-1.1,25.5,25.5,0,0,1,8.3-3.9H30l15.3,5.8-1.7.2a9.9,9.9,0,0,0-3.2.9,9.4,9.4,0,0,0-3.8,3.3c-4.3,6.9-2.7,17.2-1.9,21.3l.2.7" transform="translate(-11.9 -5.1)"/><path class="cls-2" d="M57,44.4c2.4-.4,4-1,6.7-.4s4,3.1,3.3,4.5-4.6,1-5.9.7l-1.7-.7a6.5,6.5,0,0,0-2.9-.7c-1-.1-2.5.2-3.7-.7L57,44.4" transform="translate(-11.9 -5.1)"/><path class="cls-3" d="M64.2,49.6c1.3,0,2.5-.2,2.9-1.1a2.3,2.3,0,0,0-.2-2.1A4.7,4.7,0,0,0,63.7,44a13.1,13.1,0,0,0-5.6.1l-1.1.2v.2l1.1-.3a13.1,13.1,0,0,1,5.6-.1,4.9,4.9,0,0,1,3.1,2.3,2.7,2.7,0,0,1,.2,2.1c-.7,1.5-4.6.9-5.9.6a5.1,5.1,0,0,1-1.7-.7,7.2,7.2,0,0,0-2.8-.7h-.8a4.5,4.5,0,0,1-2.9-.7h-.1a4.3,4.3,0,0,0,3,.8h.8a6.2,6.2,0,0,1,2.8.6,3.8,3.8,0,0,0,1.7.7,11.7,11.7,0,0,0,3.1.4" transform="translate(-11.9 -5.1)"/><path class="cls-5" d="M64.2,49.1c1.2,0,2.2-.2,2.5-.8a1.4,1.4,0,0,0,0-.9,4.4,4.4,0,0,1-2.5.6l-2.1-.2-1.4.8.5.2a13.9,13.9,0,0,0,3,.3" transform="translate(-11.9 -5.1)"/><path class="cls-3" d="M64.2,50c1.4,0,2.8-.3,3.2-1.3a2.8,2.8,0,0,0-.2-2.5,5.1,5.1,0,0,0-3.4-2.6,12.5,12.5,0,0,0-5.8.2l-1.1.2a.3.3,0,0,0-.3.5c0,.2.2.3.4.3l1.2-.2a12.1,12.1,0,0,1,5.4-.2,4.4,4.4,0,0,1,2.9,2.2,2.1,2.1,0,0,1,.2,1.7c-.5,1.2-3.8.9-5.5.5l-1.6-.7a6.9,6.9,0,0,0-3-.7h-.8a3.8,3.8,0,0,1-2.7-.7.4.4,0,1,0-.5.7,4.8,4.8,0,0,0,3.2.8h.7a6.6,6.6,0,0,1,2.7.6,4.9,4.9,0,0,0,1.8.8,16.4,16.4,0,0,0,3.2.4" transform="translate(-11.9 -5.1)"/><path class="cls-3" d="M62.9,46.8a1.4,1.4,0,0,1,.2.7,1.3,1.3,0,0,1,.1.6v1.3h0a.5.5,0,0,0,.3.3.3.3,0,0,0,.3-.3c.1-.1.1-.2.1-.4v-.3a2.2,2.2,0,0,0-.1-.8l-.3-.7-.5-.6Z" transform="translate(-11.9 -5.1)"/><path class="cls-3" d="M65.2,46.6l.3.7a2,2,0,0,0,.1.7c0,.2-.1.4-.1.6v.3c0,.1-.1.2-.1.4h0a.3.3,0,0,0,.3.3c.2,0,.3,0,.4-.2a.8.8,0,0,1,.1-.4h0v-.8a.3.3,0,0,0-.1-.2c0-.3-.2-.5-.3-.8a1.2,1.2,0,0,0-.5-.5Z" transform="translate(-11.9 -5.1)"/><path class="cls-2" d="M14.3,10.9c.6,2.9,3.8,2.2,4.8,1.8s2.6-.8,3.5-.2,1.2,1.7.7,4c-.9,4.4-2.6,9.6,3.7,13.8l2.5-1.2a9.5,9.5,0,0,1-3.7-6.7c-.2-4,1.9-7.9,1.6-11.2a5,5,0,0,0-1.5-3.5c-4.3-4.5-12.5-1.2-11.6,3.2" transform="translate(-11.9 -5.1)"/><path class="cls-3" d="M29.3,29.1a9.5,9.5,0,0,1-3.5-6.7,24.9,24.9,0,0,1,.8-6.1,15.9,15.9,0,0,0,.8-5.1,5.6,5.6,0,0,0-1.5-3.5A7.7,7.7,0,0,0,17,6.5c-2,1.1-3,2.7-2.6,4.4h0a2.3,2.3,0,0,0,1.3,1.8,4.1,4.1,0,0,0,3.3,0c.9-.4,2.5-1,3.6-.3s1.2,2,.8,4.1a4.3,4.3,0,0,0-.2,1.1c-.9,4.1-1.9,8.8,3.8,12.6l2.3-1.1M27,30.3h-.1c-5.7-3.9-4.7-8.6-3.9-12.7l.3-1.1c.4-2.1.1-3.4-.8-4s-2.6-.1-3.4.3a4.7,4.7,0,0,1-3.5,0,2.3,2.3,0,0,1-1.3-1.9h0c-.4-1.7.6-3.4,2.6-4.5A7.8,7.8,0,0,1,26,7.6a5.8,5.8,0,0,1,1.5,3.6,18.9,18.9,0,0,1-.7,5.1,21,21,0,0,0-.9,6.1,9.9,9.9,0,0,0,3.6,6.7h.1L27,30.3" transform="translate(-11.9 -5.1)"/><path class="cls-16" d="M14.3,10.9c.6,2.9,3.8,2.2,4.8,1.8s2.6-.8,3.5-.2l.4-.9a.7.7,0,0,1,.9-.3l.6.2h.2a.8.8,0,0,0,.7-.5.7.7,0,0,1,1-.5l1,.6a5,5,0,0,0-1.5-3.5c-4.3-4.5-12.5-1.2-11.6,3.2" transform="translate(-11.9 -5.1)"/><path class="cls-3" d="M27,30.7l.3-.2a.5.5,0,0,0-.1-.6c-5.5-3.7-4.6-8-3.7-12.2a5.2,5.2,0,0,0,.2-1.1c.4-2.2.2-3.6-.7-4.4s-2.4-.6-4.1.2a4.6,4.6,0,0,1-3.1,0,2.2,2.2,0,0,1-1.1-1.6c-.4-1.8,1-3.2,2.5-4A7.1,7.1,0,0,1,25.6,8c2.2,2.2,1.5,5,.7,8.2a21.6,21.6,0,0,0-.9,6.2,10.2,10.2,0,0,0,3.8,7.1c.2.1.5.1.6-.1s.1-.5-.1-.6a9.1,9.1,0,0,1-3.5-6.4,20.3,20.3,0,0,1,.9-6c.8-3.3,1.6-6.4-.9-9a8,8,0,0,0-9.4-1.3c-2.2,1.2-3.3,3-2.9,4.9a2.8,2.8,0,0,0,1.5,2.1,4.4,4.4,0,0,0,3.8,0c1.5-.6,2.6-.7,3.3-.2s.8,1.7.4,3.5-.1.7-.2,1.1c-.9,4.3-1.9,9.1,4,13.1H27" transform="translate(-11.9 -5.1)"/><path class="cls-5" d="M25.4,28.4a4.6,4.6,0,0,1,.7-.7c-4-3.9-2.6-8.4-1.8-12.3.4-2.3,0-3.6-.7-4.2h0a.7.7,0,0,0-.6.4l-.2.5H23c.9.8,1.1,2.2.7,4.4a5.2,5.2,0,0,1-.2,1.1c-.8,3.6-1.6,7.4,1.9,10.7" transform="translate(-11.9 -5.1)"/><path class="cls-17" d="M17.1,12.7a5.9,5.9,0,0,0,1.8-.3,5,5,0,0,1,2.5-.7,3.3,3.3,0,0,1,1.4.4l.2-.5a.7.7,0,0,1,.6-.4,2.7,2.7,0,0,0-1.8-.5,8,8,0,0,0-2.6.5H17.8c-1.3,0-2.7-.4-3-1.4V9.6a2.4,2.4,0,0,0,0,1.2,2.2,2.2,0,0,0,1.1,1.6,3.1,3.1,0,0,0,1.3.3" transform="translate(-11.9 -5.1)"/><path class="cls-3" d="M25.1,28.7l.3-.3c-3.5-3.3-2.7-7.1-1.9-10.7a5.2,5.2,0,0,0,.2-1.1c.4-2.2.2-3.6-.7-4.4h-.2a3.3,3.3,0,0,0-1.4-.4,5,5,0,0,0-2.5.7,5.9,5.9,0,0,1-1.8.3,3.1,3.1,0,0,1-1.3-.3,2.2,2.2,0,0,1-1.1-1.6,2.4,2.4,0,0,1,0-1.2,1.7,1.7,0,0,1,0-1,3.1,3.1,0,0,0-.4,2.3,2.7,2.7,0,0,0,2.8,2.2,5,5,0,0,0,2-.4,5.9,5.9,0,0,1,2.3-.5,1.8,1.8,0,0,1,1.2.3c.8.5,1.2,1.7.7,4-.7,3.9-2.2,8.4,1.8,12.2" transform="translate(-11.9 -5.1)"/><path class="cls-14" d="M38,50.1l.8-.5.8-.4h.1a90.9,90.9,0,0,1-15.8-2.9l-1.1.8A88.9,88.9,0,0,0,35,49.7l3,.4" transform="translate(-11.9 -5.1)"/><path class="cls-15" d="M38.3,50.1l1.6-.9c-.1,0-.2,0-.2-.1h-.1l-.8.4-.8.5h.3" transform="translate(-11.9 -5.1)"/><path class="cls-3" d="M39.2,50.2h-.9l1.6-.9h1.4l-1.3.5-.8.4M22.8,47h-.3l1.2-.7h.2l-1.1.8" transform="translate(-11.9 -5.1)"/><path class="cls-2" d="M18.3,42.6c0,2.3,9,4.4,16.6,5.5A58.2,58.2,0,0,0,44,49s.7-14.6.9-16.1c-4-7.6-13.2-9.6-18.3-5.1s-3.2,8-2.4,11.1a2.9,2.9,0,0,0,.2.9,11.5,11.5,0,0,0-4,.4,3.7,3.7,0,0,0-1.4.7h0a7961314590657.4,7961314590657.4,0,0,0-.2.2h-.2a.3.3,0,0,0-.1.2h-.2" transform="translate(-11.9 -5.1)"/><path class="cls-3" d="M44,48.9c0-1,.7-14.5.8-16a13.6,13.6,0,0,0-9.5-7.2,10.6,10.6,0,0,0-8.7,2.1c-3.8,3.4-3.3,7.5-2.4,11a6.4,6.4,0,0,0,.2.7v.3h-.1a10.8,10.8,0,0,0-3.9.4,3.7,3.7,0,0,0-1.4.8.1.1,0,0,0-.1.1h-.2a.1.1,0,0,1-.1.1h0c-.1.1-.1.1-.1.2h-.2c0,2.2,8.9,4.3,16.5,5.4a56.2,56.2,0,0,0,9.1.9m-.3.2a86.1,86.1,0,0,1-8.8-.9c-8.1-1.3-16.7-3.4-16.7-5.6h0c.1,0,.1,0,.1-.1h0a.1.1,0,0,0,.1-.1h.1v-.2h.4a.1.1,0,0,1,.1-.1,3.7,3.7,0,0,1,1.4-.8,13,13,0,0,1,3.9-.4h0a6.4,6.4,0,0,0-.2-.7c-.9-3.6-1.4-7.8,2.4-11.2a10.2,10.2,0,0,1,8.9-2.1,13.4,13.4,0,0,1,9.5,7.3h0c-.1,1.5-.8,16-.8,16.1h-.4" transform="translate(-11.9 -5.1)"/><path class="cls-5" d="M25.1,42.5h0l-.3-.4-.3-.7-.3-.7c0-.2-.1-.3-.1-.5h-.5l-1.8.2a6.3,6.3,0,0,1,3.3,2.2" transform="translate(-11.9 -5.1)"/><path class="cls-3" d="M44.4,33a13.1,13.1,0,0,0-9.1-7,9.8,9.8,0,0,0-8.4,2.1c-4.2,3.7-3,8.3-2.1,11.4v.7h-.5c-.1,0-3.6-.3-5.1,1a2,2,0,0,0-.6,1.4.7.7,0,0,0,.4.6c1.2,1.3,5.6,2.7,12,3.8a84.7,84.7,0,0,0,12.6,1.6c.1-2.3.6-13.8.7-15.6m-.7,16.4c-4.8,0-22-2.5-25.2-5.6a1.7,1.7,0,0,1-.6-1.2,2.7,2.7,0,0,1,.9-2c1.3-1.2,3.9-1.3,5-1.3-.8-3.1-1.9-8,2.5-11.8a10.8,10.8,0,0,1,9.1-2.3,13.8,13.8,0,0,1,9.8,7.5h.1c-.2,1.5-.8,16-.8,16.1v.4h-.7" transform="translate(-11.9 -5.1)"/><path class="cls-2" d="M41.8,46.7h0c-.4-.3-1.7-2.3-2.6-2.5s-1-.2-1-.4.1-.6.3-1.1a1.7,1.7,0,0,0,.3-.7h0c-.3.1-1.6.6-1.6,0s.6-1.3.8-2.4c.8-2.9,1-3.5,1-3.5a19.6,19.6,0,0,1,1.5-3.9c-.4-1.5-1.8-7.8.3-9.3s5.1,2.3,6.3,3.3a12.4,12.4,0,0,1,5.5-1.3h1.2a12.1,12.1,0,0,1,3.7,1.1,14.8,14.8,0,0,1,6.6,6.3,31.1,31.1,0,0,1,1.2,3,8,8,0,0,1,.3,1.5h0a45,45,0,0,1,.6,4.5c.2,1,.6,2.1.6,2.4s-1.3,0-1.6-.2h0l.2.7a1.6,1.6,0,0,1,.2,1.1c-.1.2-.5.3-1.1.2s-1.3.6-1.3.6l-.4.5a13.2,13.2,0,0,1-5.6,2.6,18.9,18.9,0,0,1-6.5.3c-5.3-.6-7.9-1.9-8.9-3" transform="translate(-11.9 -5.1)"/><path class="cls-5" d="M53.2,49.4l-2.5-.2h-1a1.9,1.9,0,0,0,.1-1.3h3.4a16,16,0,0,0,4-.4A13.2,13.2,0,0,0,62.8,45l.4-.4a1.7,1.7,0,0,1,1.2-.7h.4c.1.2.1.4.2.6h0a2.5,2.5,0,0,1,.2.7h-.8a1.8,1.8,0,0,0-1.5.9c-.1,0-.3.2-.4.4A12.4,12.4,0,0,1,57.1,49h0a15.6,15.6,0,0,1-3.9.4m-13-5.1-.9-.5c-.4,0-.7-.1-.7-.2a2.1,2.1,0,0,1,.2-.6h.1l.2-.5h.1c.6.1,1.4,1,1.9,1.6l-.8.2h-.1" transform="translate(-11.9 -5.1)"/><path class="cls-18" d="M65.8,35.7v-.9h0c0,.2.1.3.1.4v.4" transform="translate(-11.9 -5.1)"/><path class="cls-19" d="M57.4,28c1.3-.8,7.2-4.2,8.3-3.2s-.4,7.6-.9,8.9L57.4,28" transform="translate(-11.9 -5.1)"/><path class="cls-20" d="M60.4,27.4c1.8-.9,3.8-1.8,4.9-1.8h.4l-.3-.5H65a7.9,7.9,0,0,0-3.2,1L60,27l.4.4" transform="translate(-11.9 -5.1)"/><path class="cls-3" d="M64.8,34.1a.5.5,0,0,0,.4-.2c.9-2.2,2.7-7.6.7-9.4-.4-.4-1.3-.6-4.5.9a26.8,26.8,0,0,0-4.2,2.3c-.2.1-.2.3-.1.5a.4.4,0,0,0,.5.2l4.2-2.3c3.1-1.4,3.6-1,3.6-1s.3,5.3-1,8.5a.4.4,0,0,0,.2.5h.2" transform="translate(-11.9 -5.1)"/><path class="cls-21" d="M64.9,26.6s.3-.1.3.6-.7,4-2.1,5a24.3,24.3,0,0,0-2.4-3.4c-.5-.4.7-.7,1-1.1a9.4,9.4,0,0,1,3.2-1.1" transform="translate(-11.9 -5.1)"/><path class="cls-22" d="M62.9,29.9a13.5,13.5,0,0,0,.7-2.7l-.7.2-1.3.6h-.3a12.9,12.9,0,0,1,1.6,1.8" transform="translate(-11.9 -5.1)"/><path class="cls-3" d="M62.7,32h0l-.3-.5-.3-.4-.6-.8-.7-.8a.8.8,0,0,0-.4-.4l-.3-.4-.3-.2.3-.2,1.2-.9,1.3-.7,1.5-.4h1l.2.3h0v.4a3.8,3.8,0,0,1-.1,1.5,8.3,8.3,0,0,1-.4,1.5,5.4,5.4,0,0,0-.7,1.3l-.2.3h-.3c-.2.1-.4.2-.5.1s-.3-.2-.4-.3m.3-.2h.4v-.2c0-.1.1-.2.1-.3a3.1,3.1,0,0,0,.6-1.3,6.5,6.5,0,0,0,.4-1.3,6.6,6.6,0,0,0,0-1.4V27h-.4l-1.3.4-1.3.6-1.2.7v-.4c.2.1.3.3.4.4l.4.4.7.9.6.9a4.1,4.1,0,0,0,.5.9" transform="translate(-11.9 -5.1)"/><path class="cls-23" d="M65.6,36.6a8.5,8.5,0,0,1-6.5-.9c-5-3.1-4.2-7.9-3.4-10.3l1.8.7a14.8,14.8,0,0,1,6.6,6.3,31.1,31.1,0,0,1,1.2,3l.3,1.2" transform="translate(-11.9 -5.1)"/><path class="cls-2" d="M48.5,27.3c-1.2-.9-6.5-5.2-7.7-4.4s-.5,8.5-.2,9.9l7.9-5.5" transform="translate(-11.9 -5.1)"/><path class="cls-2" d="M66.4,43.7h-.2l-.3-1.2a38.6,38.6,0,0,0-.6-4.5h0c-.1-.4-.1-.8-.2-1.2h.1V37h0a34.7,34.7,0,0,1,.6,4.4c.1.6.3,1.2.4,1.6a6.4,6.4,0,0,0,.2.7m-18.8-17c-.1-.1-.1-.2-.2-.2a12.6,12.6,0,0,1,5-1.2h1.3l1.9.4c-.1.2-.1.4-.2.6a6.5,6.5,0,0,0-2-.4H51.9a10.3,10.3,0,0,0-4.3.8" transform="translate(-11.9 -5.1)"/><path class="cls-24" d="M65.1,36.7h.1l-.3-1.2a26.1,26.1,0,0,0-1.2-2.9,14.4,14.4,0,0,0-6.4-6.2l-1.7-.6c-.1.2-.1.4-.2.6l1.7.6A16.4,16.4,0,0,1,64,33.3a22.2,22.2,0,0,1,1,3.1.4.4,0,0,0,.1.3" transform="translate(-11.9 -5.1)"/><path class="cls-2" d="M46.7,27.2l.5-.3.4-.2c-.1-.1-.1-.2-.2-.2h-.6c-2.7-2.3-4.7-3.3-5.5-3.3H41l-.4.4c1.5,0,4.6,2.2,6.1,3.5" transform="translate(-11.9 -5.1)"/><path class="cls-21" d="M41.3,24.8s-.3-.2-.4.5.1,4.1,1.3,5.3a25.7,25.7,0,0,1,2.9-3c.6-.3-.5-.8-.8-1.2a8,8,0,0,0-3-1.6" transform="translate(-11.9 -5.1)"/><path class="cls-5" d="M45.2,27.3h0m0,0c-.1-.3-.7-.6-.9-.9a2.2,2.2,0,0,0-.7-.6,2.2,2.2,0,0,1,.7.6c.2.3.8.6.9.9" transform="translate(-11.9 -5.1)"/><path class="cls-22" d="M43.1,29.6a18.2,18.2,0,0,1,2-2c.2-.1.2-.2.1-.3h0c-.1-.3-.7-.6-.9-.9a2.2,2.2,0,0,0-.7-.6l-1.1-.6h0a10.1,10.1,0,0,0,.6,4.3" transform="translate(-11.9 -5.1)"/><path class="cls-3" d="M45.1,27.3a13.6,13.6,0,0,0-3.5-2.2h-.2a6,6,0,0,0,.1,3,5.8,5.8,0,0,0,.6,1.7v.3h.1a12.8,12.8,0,0,1,2.8-2.9Zm-2.9,3.5h0a.5.5,0,0,1-.6-.4v-.3a4.9,4.9,0,0,1-.6-1.7,6.4,6.4,0,0,1-.1-3.4,1,1,0,0,1,.4-.5.6.6,0,0,1,.6,0,11.2,11.2,0,0,1,4,2.7.4.4,0,0,1,.1.3c0,.1-.1.1-.2.2a13.4,13.4,0,0,0-2.9,2.8.6.6,0,0,1-.6.3Z" transform="translate(-11.9 -5.1)"/><path class="cls-3" d="M65.6,43.6h0m-3.1,2.9c.1-.2.3-.4.4-.4a1.7,1.7,0,0,1,1.7-.8h.6a2.5,2.5,0,0,0-.2-.7h0a4.5,4.5,0,0,1-.2-.8.4.4,0,0,1,.2-.4h.4l1,.4a6.4,6.4,0,0,1-.2-.7c-.1-.4-.3-1-.4-1.6a34.7,34.7,0,0,0-.6-4.4h0l-.3-1.5a26.1,26.1,0,0,0-1.2-2.9,14.4,14.4,0,0,0-6.4-6.2,12.6,12.6,0,0,0-3.6-1H52.6a14.6,14.6,0,0,0-5.4,1.2h-.4c-3.1-2.6-5.3-3.6-5.8-3.2s-.8,6.5-.1,8.8v.2h0a17.5,17.5,0,0,0-1.5,3.8h0l-1,3.5a6,6,0,0,1-.5,1.6,1.4,1.4,0,0,0-.2.6l.9-.3c.2-.1.3,0,.5.1s.2.3.1.4a2,2,0,0,1-.3.8h-.1a2.1,2.1,0,0,0-.2.6c0,.1.3.2.7.2a6.1,6.1,0,0,1,2.3,2.1l.4.4h.1c.6.7,2.6,2.3,8.6,2.8a20.5,20.5,0,0,0,6.4-.2h0a12.4,12.4,0,0,0,5.4-2.5m-9.3,3.7H50.6c-6-.6-8.3-2.2-9.1-3.1l-.5-.6c-.4-.5-1.3-1.7-1.9-1.8s-1.2-.2-1.3-.7,0-.8.3-1.2h-1a.6.6,0,0,1-.3-.6,2.6,2.6,0,0,1,.3-1,5.3,5.3,0,0,0,.5-1.5,29.7,29.7,0,0,1,1-3.5,13.1,13.1,0,0,1,1.5-3.8c-.3-1.2-2-7.9.5-9.6s4.2,1.2,6.5,3.1a13.3,13.3,0,0,1,5.5-1.2h1.2a10.6,10.6,0,0,1,3.8,1.1,15.2,15.2,0,0,1,6.9,6.5c.5,1.2.9,2.2,1.2,3.1a8,8,0,0,1,.3,1.5h0a38.6,38.6,0,0,1,.6,4.5,15.5,15.5,0,0,0,.4,1.5,6.5,6.5,0,0,1,.2,1.1,1,1,0,0,1-.4.5,1.7,1.7,0,0,1-1,0c.2.5.4.9.2,1.3s-.5.6-1.5.4-1,.5-1,.5l-.5.5a13.8,13.8,0,0,1-5.7,2.7,19.7,19.7,0,0,1-4.1.4" transform="translate(-11.9 -5.1)"/><path class="cls-3" d="M24,39.9c.1.2.1.5.2.7l.3.7.3.7.4.6c0,.1.1.1.1,0h0v-.8a1.7,1.7,0,0,1-.1-.7c-.1-.3-.1-.5-.2-.8a6.4,6.4,0,0,1-.2-.7c-.1-.2-.4-.2-.6-.1s-.2.2-.2.4h0" transform="translate(-11.9 -5.1)"/><path class="cls-2" d="M39.2,44.9c2.5-.4,4.1-.9,6.7-.4s4,3.1,3.4,4.5-4.6,1-5.9.7a5.7,5.7,0,0,1-1.7-.7,6.5,6.5,0,0,0-2.9-.7c-1.1,0-2.5.2-3.7-.7l4.1-2.7" transform="translate(-11.9 -5.1)"/><path class="cls-3" d="M46.4,50.1c1.3,0,2.6-.2,2.9-1a2.8,2.8,0,0,0-.1-2.2,4.6,4.6,0,0,0-3.3-2.4,13.1,13.1,0,0,0-5.6.1l-1.1.2V45l1.2-.2a11.2,11.2,0,0,1,5.5-.2A4.3,4.3,0,0,1,49,47a2.1,2.1,0,0,1,.2,2c-.7,1.5-4.5,1-5.8.6a3.8,3.8,0,0,1-1.7-.7,6.3,6.3,0,0,0-2.9-.6h-.7a4.6,4.6,0,0,1-3-.7h0a4.2,4.2,0,0,0,3,.8h.7a4.9,4.9,0,0,1,2.8.7,7.5,7.5,0,0,0,1.8.7,18.7,18.7,0,0,0,3,.3" transform="translate(-11.9 -5.1)"/><path class="cls-3" d="M46.5,50.5c1.3,0,2.7-.3,3.2-1.3a3.2,3.2,0,0,0-.2-2.5A5.5,5.5,0,0,0,46,44.1a12,12,0,0,0-5.7.2l-1.2.2c-.2,0-.3.3-.3.5s.3.4.5.3l1.1-.2a12.2,12.2,0,0,1,5.4-.2,4.1,4.1,0,0,1,2.9,2.2,2,2,0,0,1,.2,1.8c-.5,1.1-3.8.8-5.4.4l-1.6-.6a6.2,6.2,0,0,0-3.1-.8h-.7a4.1,4.1,0,0,1-2.8-.7.3.3,0,0,0-.5.1c-.2.2-.1.4,0,.6a5.2,5.2,0,0,0,3.3.8h.7a8.2,8.2,0,0,1,2.6.6,5.4,5.4,0,0,0,1.9.8,15.1,15.1,0,0,0,3.2.4" transform="translate(-11.9 -5.1)"/><path class="cls-3" d="M44.9,47.3a1.9,1.9,0,0,1,.2.7,1.3,1.3,0,0,1,.1.6V50h0a.3.3,0,0,0,.3.3.3.3,0,0,0,.3-.3.4.4,0,0,0,.1-.3v-.4c0-.3-.1-.5-.1-.8l-.3-.7c-.2-.2-.3-.4-.6-.5h0" transform="translate(-11.9 -5.1)"/><path class="cls-3" d="M47.2,47.1a2.5,2.5,0,0,1,.2.7,1.5,1.5,0,0,1,.1.7v.9c0,.1-.1.3-.1.4h0a.3.3,0,0,0,.3.3c.2.1.3,0,.3-.2l.2-.3v-1a.3.3,0,0,1-.1-.2l-.3-.8a1.2,1.2,0,0,0-.5-.5h-.1" transform="translate(-11.9 -5.1)"/><path class="cls-25" d="M23.4,8.4c.4,0,.7-.1.2-.5a3.8,3.8,0,0,0-2.8-1.2h0a3.9,3.9,0,0,0-3,1.4h3a15.9,15.9,0,0,0,2.6.4" transform="translate(-11.9 -5.1)"/><path class="cls-5" d="M54.1,44.3a1.5,1.5,0,0,0,1.2-.6,1.3,1.3,0,0,0,.9.4.8.8,0,0,0,.7-.2.5.5,0,0,0,.3-.5c0,.1-.1.2-.2.3h-.1c-.1,0-.1,0-.1.1h-.3c0,.1-.1.1-.2.1h-.2l-.4-.2-.4-.3a.1.1,0,0,0-.1.1l-.3.3-.5.2h-.9a.8.8,0,0,1-.4-.4c.1.3.2.5.5.6l.5.2" transform="translate(-11.9 -5.1)"/><path class="cls-2" d="M56.9,42.5s.4.8-.1,1.1a1.4,1.4,0,0,1-1.6-.5s-.6,1.1-1.5.7-.4-1.1-.4-1.1l3.6-.2" transform="translate(-11.9 -5.1)"/><path class="cls-3" d="M56.9,42.5a1.5,1.5,0,0,1-.1.7h-.2c0,.1,0,.1-.1.1h-.6l-.5-.4-.2-.2L55,43l-.2.2-.3.2-.5.2h-.3c0-.1-.1-.1-.1-.2a3.3,3.3,0,0,1-.3-.6h0c-.1.2-.2.3-.2.5v.4a.8.8,0,0,0,.4.4h.9l.5-.2.3-.3.3-.4H55l.7.5.4.2h.7c0-.1,0-.1.1-.1H57a.5.5,0,0,0,.2-.4v-.4c-.1-.2-.1-.3-.2-.4h-.1" transform="translate(-11.9 -5.1)"/><path class="cls-5" d="M53.4,42.7h0m1.8-.1.2-.2a.3.3,0,0,1,.1.2h-.3" transform="translate(-11.9 -5.1)"/><path class="cls-5" d="M54.1,43.6l.4-.2.3-.2L55,43l.2-.3.2.2.5.4h.6c.1,0,.1,0,.1-.1h.2a.7.7,0,0,0,.1-.5h0c-.1.1-.1.3-.2.5h-.2a1.8,1.8,0,0,1-1-.6h-.3c-.2.3-.6.8-1.1.8h-.4a.9.9,0,0,1-.3-.6h0a.8.8,0,0,0,.2.5c0,.1.1.1.1.2h.4" transform="translate(-11.9 -5.1)"/><path class="cls-3" d="M54.1,43.8a1.4,1.4,0,0,0,1.1-.7,1.7,1.7,0,0,0,1.1.6h.5c.3-.2.2-.7.1-.9a.7.7,0,0,1-.1.5h-.2c0,.1,0,.1-.1.1h-.6l-.5-.4-.2-.2L55,43l-.2.2-.3.2-.4.2h-.4c0-.1-.1-.1-.1-.2a.8.8,0,0,1-.2-.5.8.8,0,0,0,.3,1h.4" transform="translate(-11.9 -5.1)"/><path class="cls-3" d="M55.2,41.9v.6c-.1,0-.1.1-.1.2s0,.2-.1.2a.4.4,0,0,0,.1.5c.2.1.3,0,.4-.1h.1v-.8a.4.4,0,0,0-.1-.3v-.3h-.2c-.1,0-.2.1-.1.2Z" transform="translate(-11.9 -5.1)"/><path class="cls-3" d="M53.8,41.4c0,.4,1.1,1,1.5,1s1.6-.7,1.5-1-.4-.6-1.6-.6-1.4.4-1.4.6" transform="translate(-11.9 -5.1)"/><path class="cls-5" d="M55.6,41.5c.1,0,.4-.1.4-.2h-.9c0,.1.2.2.5.2h0" transform="translate(-11.9 -5.1)"/><path class="cls-3" d="M55.6,41.6h-.1l-.5-.2c-.1-.1-.1-.1,0-.2h0c0-.1.1-.1.4-.1h.2c.3,0,.5,0,.5.1s.1.1,0,.2-.5.2-.5.2m-.2-.4h-.3c0,.1.2.2.5.2h0c.1,0,.4-.1.4-.2h-.6" transform="translate(-11.9 -5.1)"/><path class="cls-3" d="M62,40.6a1.9,1.9,0,0,0-.1-.8,1.6,1.6,0,0,0-.4-.7,1.8,1.8,0,0,0-.7-.5H59.1a1.5,1.5,0,0,0-.6.5,2.5,2.5,0,0,0-.4.7,2.2,2.2,0,0,0-.1.8h.3a2.6,2.6,0,0,1,.7-1.1,1.8,1.8,0,0,1,1-.4h.5a.5.5,0,0,1,.5.3,4.4,4.4,0,0,1,.8,1h0c0,.1.1.1.2.1Z" transform="translate(-11.9 -5.1)"/><path class="cls-3" d="M48.4,40.7a2.7,2.7,0,0,1,.8-1l.4-.3h.3a.1.1,0,0,1,.1-.1h.2a1.9,1.9,0,0,1,1,.5,2.3,2.3,0,0,1,.7,1.1h0a.1.1,0,0,0,.2,0,.1.1,0,0,0,.1-.1c0-.2-.1-.5-.1-.7a3,3,0,0,0-.4-.8,1.8,1.8,0,0,0-.7-.5H49.3l-.7.5a2.1,2.1,0,0,0-.3.7,2.4,2.4,0,0,0-.2.8h.3Z" transform="translate(-11.9 -5.1)"/><path class="cls-5" d="M34.7,47.7c0-.2,0-.3.1-.4h.7l1.7-1.1h-.1a11,11,0,0,1-6.3-17.5c1.1-1.3,2.2-2.4,2.7-2.9h-.3a9.2,9.2,0,0,0-6.3,2.3c-4.2,3.7-3,8.3-2.1,11.4v.3l.2.5c.1.3.1.5.2.8a1.7,1.7,0,0,0,.1.7v.8h0l-.2-.2a2,2,0,0,1-2,1.8h-.8c-1.7-.8-3-1.7-3.2-2.7a1.5,1.5,0,0,0-.4,1.1.7.7,0,0,0,.4.6c1.2,1.3,5.6,2.7,12,3.8l3.6.7" transform="translate(-11.9 -5.1)"/><path class="cls-26" d="M25.3,42.7h-.1a.3.3,0,0,1-.1-.2h0l.2.2" transform="translate(-11.9 -5.1)"/><path class="cls-3" d="M34.9,48.1c-7.6-1.1-16.6-3.2-16.6-5.5h.2a.3.3,0,0,1,.1-.2h.2A7961314590657.4,7961314590657.4,0,0,1,19,41h0v.2a.6.6,0,0,0,.1.4,1.5,1.5,0,0,0-.4,1.1.7.7,0,0,0,.4.6c1.2,1.3,5.6,2.7,12,3.8l3.6.7a.3.3,0,0,1,.1.2l.3.2h-.2M24.8,39.8v-.2a.5.5,0,0,0-.4-.2h-.1c-1.1-4.2-2.1-13.4,9.6-13.9l-.4.3h-.3a9.2,9.2,0,0,0-6.3,2.3c-4.2,3.7-3,8.3-2.1,11.4v.3" transform="translate(-11.9 -5.1)"/><path class="cls-3" d="M25.3,42.7h0v-.8a1.7,1.7,0,0,1-.1-.7c-.1-.3-.1-.5-.2-.8l-.2-.5v-.2a.5.5,0,0,0-.4-.2h-.1c.3,1.3.6,2.2.6,2.2H25a2.5,2.5,0,0,1,.1.8.3.3,0,0,0,.1.2h.1" transform="translate(-11.9 -5.1)"/><path class="cls-5" d="M46.5,49.7h-.6v-.3c0-.3-.1-.5-.1-.8h1.7v.9c0,.1,0,.1-.1.2h-.9m-1.3-.1-1.7-.3-1.6-.6a6.2,6.2,0,0,0-3.1-.8h-.7a4,4,0,0,1-2.6-.6l1.7-1.1,1.6.6a6.3,6.3,0,0,1,2.9.6,3.9,3.9,0,0,0,1.7.7,6.6,6.6,0,0,0,1.8.3v1.2m3-.2h0v-.8a.3.3,0,0,1-.1-.2h0a1.9,1.9,0,0,0,.9-.4,1.7,1.7,0,0,1-.1,1,1.3,1.3,0,0,1-.7.5" transform="translate(-11.9 -5.1)"/><path class="cls-3" d="M46.5,50.1h-.7a.4.4,0,0,0,.1-.3h1.5v.2h0c0,.1,0,.2.1.2h-1M45.2,50l-1.8-.3a5.7,5.7,0,0,1-1.7-.7,6.5,6.5,0,0,0-2.9-.7,6.8,6.8,0,0,1-3.1-.4l-.6.2-.3-.2a.3.3,0,0,0-.1-.2c0-.2,0-.3.1-.4h.7a4,4,0,0,0,2.6.6h.7a6.2,6.2,0,0,1,3.1.8l1.6.6,1.7.3h0V50h0m2.9-.1a.4.4,0,0,1,.1-.3v-.2a1.3,1.3,0,0,0,.7-.5,1.7,1.7,0,0,0,.1-1l.3-.4h0a2.2,2.2,0,0,1,0,1.6,1.9,1.9,0,0,1-1.2.9" transform="translate(-11.9 -5.1)"/><path class="cls-3" d="M45.8,50.1h0a.4.4,0,0,0,.1-.3h0v-.3c0-.3-.1-.5-.1-.8h-.6v1.2h0V50h.6" transform="translate(-11.9 -5.1)"/><path class="cls-3" d="M47.5,50h.6a.4.4,0,0,1,.1-.3v-.2h0v-.8a.3.3,0,0,1-.1-.2h-.6v.9c0,.1,0,.1-.1.2v.2h0c0,.1,0,.2.1.2" transform="translate(-11.9 -5.1)"/></svg>