<svg xmlns="http://www.w3.org/2000/svg" xmlns:xlink="http://www.w3.org/1999/xlink" viewBox="0 0 391.5 303.4">
  <defs>
    <style>
      .a {
        isolation: isolate;
      }

      .b {
        fill: url(#a);
      }

      .c {
        fill: url(#b);
      }

      .d {
        fill: #92d0ff;
      }

      .e {
        fill: url(#c);
      }

      .f {
        fill: url(#d);
      }

      .g {
        fill: url(#e);
      }

      .h {
        fill: url(#f);
      }

      .i {
        fill: url(#g);
      }

      .bw, .j, .k, .y {
        fill: none;
        stroke-miterlimit: 10;
      }

      .j, .k {
        stroke: #b3d3f4;
      }

      .k {
        stroke-dasharray: 3.99 3.99;
      }

      .l {
        fill: #f3faff;
      }

      .m {
        fill: #b3d3f4;
      }

      .n {
        fill: #cfe0f5;
      }

      .o {
        fill: #fff4e1;
      }

      .p, .q {
        fill: #e6f1fc;
      }

      .aj, .al, .au, .bb, .bi, .bk, .bq, .br, .q {
        mix-blend-mode: multiply;
      }

      .r {
        fill: url(#h);
      }

      .s {
        fill: url(#i);
      }

      .t {
        fill: #352e72;
      }

      .u {
        fill: #fc8975;
      }

      .v {
        fill: url(#j);
      }

      .w {
        fill: #75a1e9;
      }

      .x {
        fill: url(#k);
      }

      .y {
        stroke: #4a578e;
        stroke-width: 0.5px;
      }

      .z {
        fill: #081466;
      }

      .aa {
        fill: url(#l);
      }

      .ab {
        fill: url(#m);
      }

      .ac {
        fill: url(#n);
      }

      .ad {
        fill: #2d4cba;
      }

      .ae {
        fill: url(#o);
      }

      .af {
        fill: url(#p);
      }

      .ag {
        fill: #fff;
      }

      .ah {
        font-size: 6px;
        letter-spacing: 0.1em;
      }

      .ah, .ai {
        fill: #eac38f;
        font-family: OpenSans-Bold, Open Sans;
        font-weight: 700;
      }

      .ai {
        font-size: 9px;
      }

      .aj, .al {
        fill: #c9d3f4;
      }

      .aj {
        opacity: 0.55;
      }

      .ak {
        fill: url(#q);
      }

      .al, .bi, .bk {
        opacity: 0.35;
      }

      .am {
        fill: url(#r);
      }

      .an {
        fill: url(#s);
      }

      .ao {
        fill: url(#t);
      }

      .ap {
        fill: url(#u);
      }

      .aq {
        fill: url(#v);
      }

      .ar {
        fill: url(#w);
      }

      .as {
        fill: url(#x);
      }

      .at {
        fill: url(#y);
      }

      .au, .bb, .bq, .br {
        opacity: 0.75;
      }

      .av {
        fill: url(#z);
      }

      .aw {
        fill: url(#aa);
      }

      .ax {
        fill: url(#ab);
      }

      .ay {
        fill: #a2c0ed;
      }

      .az {
        fill: url(#ac);
      }

      .ba {
        fill: #abd1ff;
      }

      .bb {
        fill: url(#ad);
      }

      .bc {
        fill: url(#ae);
      }

      .bd {
        fill: url(#af);
      }

      .be {
        fill: url(#ag);
      }

      .bf {
        fill: url(#ah);
      }

      .bg {
        fill: #352e73;
      }

      .bh {
        fill: url(#ai);
      }

      .bi {
        fill: url(#aj);
      }

      .bj {
        fill: url(#ak);
      }

      .bk {
        fill: url(#al);
      }

      .bl {
        fill: url(#am);
      }

      .bm {
        fill: #cc6658;
      }

      .bn {
        fill: url(#an);
      }

      .bo {
        fill: url(#ao);
      }

      .bp {
        fill: url(#ap);
      }

      .bq {
        fill: url(#aq);
      }

      .br {
        fill: url(#ar);
      }

      .bs {
        fill: url(#as);
      }

      .bt {
        fill: url(#at);
      }

      .bu {
        fill: url(#au);
      }

      .bv {
        fill: url(#av);
      }

      .bw {
        stroke: #cfe0f5;
      }
    </style>
    <linearGradient id="a" x1="469.52" y1="420.5" x2="469.52" y2="386.44" gradientUnits="userSpaceOnUse">
      <stop offset="0.01" stop-color="#fcf5f1"/>
      <stop offset="0.48" stop-color="#fcefed"/>
      <stop offset="1" stop-color="#fce1e3"/>
    </linearGradient>
    <linearGradient id="b" x1="600.57" y1="386.44" x2="600.57" y2="261.25" gradientUnits="userSpaceOnUse">
      <stop offset="0" stop-color="#466de5"/>
      <stop offset="1" stop-color="#78bfff"/>
    </linearGradient>
    <linearGradient id="c" x1="623.96" y1="386.44" x2="623.96" y2="299.12" gradientUnits="userSpaceOnUse">
      <stop offset="0" stop-color="#4cd9ed"/>
      <stop offset="0.04" stop-color="#4bd3ed"/>
      <stop offset="0.32" stop-color="#48afed"/>
      <stop offset="0.58" stop-color="#4595ec"/>
      <stop offset="0.82" stop-color="#4485ec"/>
      <stop offset="1" stop-color="#437fec"/>
    </linearGradient>
    <linearGradient id="d" x1="407.51" y1="365.46" x2="350.16" y2="308.11" xlink:href="#c"/>
    <linearGradient id="e" x1="325.22" y1="386.44" x2="325.22" y2="278.78" gradientUnits="userSpaceOnUse">
      <stop offset="0" stop-color="#4cd9ed"/>
      <stop offset="0.19" stop-color="#58c9ef"/>
      <stop offset="0.57" stop-color="#779ff3"/>
      <stop offset="1" stop-color="#a068f8"/>
    </linearGradient>
    <linearGradient id="f" x1="304.09" y1="385.6" x2="304.09" y2="321.98" gradientTransform="translate(24.7 -20) rotate(3.8)" xlink:href="#c"/>
    <linearGradient id="g" x1="300.4" y1="389.47" x2="318.69" y2="357.79" xlink:href="#e"/>
    <linearGradient id="h" x1="465.49" y1="156.88" x2="469.74" y2="156.88" gradientUnits="userSpaceOnUse">
      <stop offset="0" stop-color="#eff1fe"/>
      <stop offset="0.38" stop-color="#e4e7fb"/>
      <stop offset="0.64" stop-color="#d4d9f5"/>
      <stop offset="1" stop-color="#b7c0eb"/>
    </linearGradient>
    <linearGradient id="i" x1="467.1" y1="157.02" x2="467.84" y2="157.02" xlink:href="#h"/>
    <linearGradient id="j" x1="462.72" y1="330.38" x2="462.72" y2="226.57" gradientTransform="matrix(-0.88, 0.02, 0.03, 1, 827.19, -11.81)" gradientUnits="userSpaceOnUse">
      <stop offset="0" stop-color="#29225e"/>
      <stop offset="1" stop-color="#3f368c"/>
    </linearGradient>
    <linearGradient id="k" x1="474.58" y1="330.39" x2="474.58" y2="226.58" xlink:href="#j"/>
    <linearGradient id="l" x1="435.8" y1="201.13" x2="483.22" y2="178.49" gradientUnits="userSpaceOnUse">
      <stop offset="0" stop-color="#fcc73c"/>
      <stop offset="1" stop-color="#fc7a3c"/>
    </linearGradient>
    <linearGradient id="m" x1="423.93" y1="183.54" x2="429.12" y2="183.54" xlink:href="#h"/>
    <linearGradient id="n" x1="422.88" y1="175.65" x2="434.09" y2="175.65" xlink:href="#h"/>
    <linearGradient id="o" x1="328.41" y1="164.66" x2="114.02" y2="164.66" gradientUnits="userSpaceOnUse">
      <stop offset="0" stop-color="#c7e3fe"/>
      <stop offset="0.24" stop-color="#cde6fe"/>
      <stop offset="0.57" stop-color="#deeefe"/>
      <stop offset="0.93" stop-color="#f9fcff"/>
      <stop offset="1" stop-color="#fff"/>
    </linearGradient>
    <linearGradient id="p" x1="221.21" y1="262.81" x2="221.21" y2="86.21" gradientUnits="userSpaceOnUse">
      <stop offset="0" stop-color="#ffd5a7"/>
      <stop offset="0.37" stop-color="#ffd7aa"/>
      <stop offset="0.65" stop-color="#ffdeb4"/>
      <stop offset="0.91" stop-color="#ffe9c4"/>
      <stop offset="1" stop-color="#fec"/>
    </linearGradient>
    <linearGradient id="q" x1="275.96" y1="306.41" x2="166.47" y2="116.77" xlink:href="#o"/>
    <linearGradient id="r" x1="274.81" y1="329.72" x2="167.62" y2="222.53" xlink:href="#o"/>
    <linearGradient id="s" x1="55.7" y1="402.78" x2="78.93" y2="362.56" gradientTransform="matrix(-1, 0, 0.21, 1, 561.93, 0)" xlink:href="#e"/>
    <linearGradient id="t" x1="415.25" y1="219.44" x2="424.38" y2="219.44" xlink:href="#h"/>
    <linearGradient id="u" x1="421.78" y1="196.48" x2="394.16" y2="222.57" xlink:href="#l"/>
    <linearGradient id="v" x1="550.93" y1="234.26" x2="559.18" y2="234.26" xlink:href="#h"/>
    <linearGradient id="w" x1="600.38" y1="398.92" x2="600.38" y2="300.91" gradientTransform="matrix(1, 0, 0, 1, 0, 0)" xlink:href="#j"/>
    <linearGradient id="x" x1="613.24" y1="398.92" x2="613.24" y2="300.91" gradientTransform="matrix(1, 0, 0, 1, 0, 0)" xlink:href="#j"/>
    <linearGradient id="y" x1="590.86" y1="267.14" x2="590.86" y2="305.02" xlink:href="#l"/>
    <linearGradient id="z" x1="589.33" y1="262.12" x2="590.2" y2="262.12" xlink:href="#l"/>
    <linearGradient id="aa" x1="599.13" y1="239.57" x2="611.52" y2="239.57" xlink:href="#h"/>
    <linearGradient id="ab" x1="602.12" y1="246.24" x2="608.2" y2="246.24" xlink:href="#h"/>
    <linearGradient id="ac" x1="598.86" y1="300.24" x2="570.92" y2="272.3" gradientUnits="userSpaceOnUse">
      <stop offset="0" stop-color="#5789ee"/>
      <stop offset="1" stop-color="#78bfff"/>
    </linearGradient>
    <linearGradient id="ad" x1="592.69" y1="276.15" x2="624.84" y2="276.15" xlink:href="#l"/>
    <linearGradient id="ae" x1="592.69" y1="296.21" x2="601.62" y2="296.21" xlink:href="#h"/>
    <linearGradient id="af" x1="612.8" y1="267.14" x2="612.8" y2="299.53" xlink:href="#l"/>
    <linearGradient id="ag" x1="606.57" y1="255.96" x2="606.57" y2="249.96" gradientUnits="userSpaceOnUse">
      <stop offset="0" stop-color="#fcae3c"/>
      <stop offset="1" stop-color="#fc7a3c"/>
    </linearGradient>
    <linearGradient id="ah" x1="602.25" y1="255.49" x2="602.25" y2="249.8" xlink:href="#ag"/>
    <linearGradient id="ai" x1="332.43" y1="397.98" x2="332.43" y2="271.95" gradientTransform="matrix(1, 0, 0, 1, 0, 0)" xlink:href="#j"/>
    <linearGradient id="aj" x1="339.14" y1="339.16" x2="339.14" y2="310.81" gradientTransform="matrix(1, 0, 0, 1, 0, 0)" xlink:href="#j"/>
    <linearGradient id="ak" x1="350.35" y1="397.98" x2="350.35" y2="271.95" gradientTransform="matrix(1, 0, 0, 1, 0, 0)" xlink:href="#j"/>
    <linearGradient id="al" x1="341.5" y1="285.64" x2="341.5" y2="273.47" gradientTransform="matrix(1, 0, 0, 1, 0, 0)" xlink:href="#j"/>
    <linearGradient id="am" x1="386.01" y1="258.45" x2="392.59" y2="258.45" xlink:href="#h"/>
    <linearGradient id="an" x1="288.83" y1="230.19" x2="293.42" y2="230.19" xlink:href="#h"/>
    <linearGradient id="ao" x1="290.95" y1="230.26" x2="291.53" y2="230.26" xlink:href="#h"/>
    <linearGradient id="ap" x1="339.5" y1="247.82" x2="339.5" y2="283.1" gradientUnits="userSpaceOnUse">
      <stop offset="0" stop-color="#fcc73c"/>
      <stop offset="0.21" stop-color="#fcc23c"/>
      <stop offset="0.45" stop-color="#fcb43c"/>
      <stop offset="0.72" stop-color="#fc9c3c"/>
      <stop offset="0.99" stop-color="#fc7b3c"/>
      <stop offset="1" stop-color="#fc7a3c"/>
    </linearGradient>
    <linearGradient id="aq" x1="86.65" y1="151.56" x2="86.65" y2="156.27" xlink:href="#l"/>
    <linearGradient id="ar" x1="324.47" y1="259.14" x2="327.5" y2="259.14" xlink:href="#l"/>
    <linearGradient id="as" x1="332.92" y1="235.74" x2="352.21" y2="235.74" gradientUnits="userSpaceOnUse">
      <stop offset="0" stop-color="#9d5822"/>
      <stop offset="0.28" stop-color="#9a5722"/>
      <stop offset="0.48" stop-color="#915321"/>
      <stop offset="0.66" stop-color="#814c1f"/>
      <stop offset="0.83" stop-color="#6a421c"/>
      <stop offset="0.98" stop-color="#4e3618"/>
      <stop offset="1" stop-color="#4a3418"/>
    </linearGradient>
    <linearGradient id="at" x1="335.44" y1="244.52" x2="347.4" y2="244.52" xlink:href="#h"/>
    <linearGradient id="au" x1="333.98" y1="234.15" x2="347.05" y2="234.15" xlink:href="#h"/>
    <linearGradient id="av" x1="324.9" y1="234.64" x2="347.24" y2="234.64" xlink:href="#as"/>
  </defs>
  <g class="a">
    <g>
      <path class="b" d="M292.6,386.4H654.5c11.8,0-9.3,6.2-16.2,13.1s-6.6,9.8-23.8,15c-37,11.3-52.8-10.7-111.5-2.1-25.1,3.7-57,10.8-82.1,7-21.2-3.1-26.4-17.6-42.4-18.8-24.6-1.8-36.9,0-59.3-1.1C299.9,398.6,261.9,386.4,292.6,386.4Z" transform="translate(-266.5 -117.1)"/>
      <g>
        <g>
          <path class="c" d="M568.9,386.4c-1.1-39.8,7.9-88.1,39.2-115.6,5.1-4.4,11.2-10,18.4-9.5,3.3.2,5,4,5.5,6.8.8,5.1,0,10.3-1.2,15.2-6.8,27.5-29.2,75.5-35,103.1" transform="translate(-266.5 -117.1)"/>
          <path class="d" d="M621.8,271.9c-21,27.1-32.5,61.1-35.6,95a132.6,132.6,0,0,0-.4,18.9c0,.3.6.3.6,0a192.5,192.5,0,0,1,18.9-86.1,165.4,165.4,0,0,1,16.8-27.6c.1-.2-.2-.4-.3-.2Z" transform="translate(-266.5 -117.1)"/>
          <g>
            <path class="e" d="M595.8,386.4c4.2-25.7,8.6-46.8,23.4-68.3,6.1-8.9,17.8-19.8,27.1-18.9s2.9,16-3,27.3a159,159,0,0,0-16.4,48.2c.8-5.1,4.3-19.5,14.7-25.8,3-1.9,10.5-3,10.5,3.2,0,10.9-10.6,24.1-13.3,34.3" transform="translate(-266.5 -117.1)"/>
            <path class="d" d="M643.1,307a76.2,76.2,0,0,0-6.6,10.1q-4.1,7.3-7.5,15c-2.7,5.7-5.1,11.5-7.4,17.4s-4.3,12-6,18.1a100.4,100.4,0,0,0-3.4,16.3c-.1.6-.1,1.2-.2,1.8s.4.2.4,0a110.8,110.8,0,0,1,3.3-16q2.4-8.8,5.7-17.7c2.2-5.9,4.6-11.8,7.2-17.6s4.8-10.3,7.5-15.3a91.7,91.7,0,0,1,6.6-10.8,8.6,8.6,0,0,1,.7-1c.2-.2-.1-.6-.3-.3Z" transform="translate(-266.5 -117.1)"/>
            <path class="d" d="M646.2,352.9c-8.6,8.6-12.4,21.8-14.6,33.5a.3.3,0,0,0,.5.1c2.7-11.6,5.9-24.5,14.4-33.3.1-.2-.1-.5-.3-.3Z" transform="translate(-266.5 -117.1)"/>
          </g>
        </g>
        <g>
          <path class="f" d="M359.6,386.4c-6.1-50.2-1.7-72.1,4-86,2.7-6.5,6.5-12.9,11.9-17.5,21.7-18.3,21.1,17.3,20.1,28.1-2.4,24.5-8.5,50.8-9.1,75.4" transform="translate(-266.5 -117.1)"/>
          <path class="g" d="M340,386.4c-.7-15.8-7.7-31.2-16.7-43.9s-21.5-23.1-29.6-36.6c-4.4-7.2-11.3-18.6-1.1-24.5s27.9.3,37,7.8S346,309,351.5,320.4c9.6,20.2,11.5,43.7,11.6,66" transform="translate(-266.5 -117.1)"/>
          <path class="h" d="M342.2,386.4c0-16-8.2-33-21.1-45.6-8.5-8.2-18.6-15.9-30.1-19.3-6-1.8-22.8-4.5-24.5,5.4-.6,3.8,2.8,10.9,11,17.3,11.3,9,42.6,23,46.4,42.2" transform="translate(-266.5 -117.1)"/>
          <path class="d" d="M274.2,327.6c20.6,5.7,40,19.8,50.4,38.6a70.9,70.9,0,0,1,7.2,19.9c0,.3.4.2.4-.1-3.9-23.6-21.6-42.4-42.5-52.8a84.7,84.7,0,0,0-15.4-6,.2.2,0,0,0-.1.4Z" transform="translate(-266.5 -117.1)"/>
          <path class="d" d="M298,287.8c10.5,5.7,19.1,14.7,26,24.3a132.3,132.3,0,0,1,19.9,42.7,173.2,173.2,0,0,1,5.1,31.3c0,.4.7.4.7,0-1.4-31.7-13.4-65.4-36.7-87.6a64,64,0,0,0-14.8-11c-.2-.1-.4.2-.2.3Z" transform="translate(-266.5 -117.1)"/>
          <path class="d" d="M383.6,282.5c-10.5,25.2-13.1,53.6-13.8,80.7-.2,7.6-.2,15.2.1,22.9a.3.3,0,0,0,.6,0c-.1-27.6.6-55.3,7-82.2a144.4,144.4,0,0,1,6.6-21.2c.1-.3-.4-.4-.5-.2Z" transform="translate(-266.5 -117.1)"/>
        </g>
        <g>
          <path class="i" d="M326.8,386.4c-1.9-8.6-3.6-17.7-8.8-25.2-3.4-4.9-10.3-11.7-16.4-11.6s-5.6,4.5-5.1,8.5c1.4,10.3,7.2,13.5,9.4,24.7-1.1-4.2-8-18.9-14-13.3s3.3,16.9,3.3,16.9" transform="translate(-266.5 -117.1)"/>
          <path class="d" d="M294.4,372.3a50.7,50.7,0,0,1,8.7,14.2c.1.3.5.2.4-.1-1.4-5.5-5.2-10.2-8.9-14.3-.1-.2-.4.1-.2.2Z" transform="translate(-266.5 -117.1)"/>
          <path class="d" d="M303.9,356.1c7.9,8.3,11.6,19.9,15.5,30.4a.3.3,0,0,0,.5-.1,97.1,97.1,0,0,0-5.3-13.9c-2.7-6-5.8-12-10.5-16.6-.1-.2-.4.1-.2.2Z" transform="translate(-266.5 -117.1)"/>
        </g>
      </g>
      <g>
        <g>
          <line class="j" x1="236.7" y1="187.4" x2="238.7" y2="187.4"/>
          <path class="k" d="M509.2,304.5h107a31.7,31.7,0,1,0,0-63.3H374.8A16.8,16.8,0,0,1,358,224.4h0a16.8,16.8,0,0,1,16.8-16.8H577.7a14.9,14.9,0,0,0,0-29.8H392.1a8.2,8.2,0,1,1,0-16.3H442" transform="translate(-266.5 -117.1)"/>
          <line class="j" x1="177.6" y1="44.4" x2="179.6" y2="44.4"/>
        </g>
        <g>
          <path class="l" d="M458.8,135a17.2,17.2,0,0,0-14.9,29.3l-2.3,4.8,5.2-2.5a17.2,17.2,0,1,0,12-31.6Z" transform="translate(-266.5 -117.1)"/>
          <path class="m" d="M448.3,160.1l-1.8-2.1a2,2,0,0,1,.2-2.8l2.1-1.7a1.8,1.8,0,0,1,2.7.3s1,1.4,2.1,1.1,4-2.3,5.5-3.8-.8-3-.8-3a2.1,2.1,0,0,1,.3-2.8l2-1.7a1.9,1.9,0,0,1,2.8.3l1.8,2.1C469.2,150.8,451.8,164.3,448.3,160.1Z" transform="translate(-266.5 -117.1)"/>
        </g>
        <path class="l" d="M533.9,161.1c2.5-2.4,3.6-4.9,7.1-5.7a12.9,12.9,0,0,0,2.1-.6c1.7-1.1,1.4-3.5,1.7-5.5.8-3.7,5.7-6.1,9.4-4.5,1.5.7,2.9,2,4.5,1.9,3.4-.2,3-4.4,5.3-6.7s6.6-2.5,9.4-1.1a13.5,13.5,0,0,1,4.9,4c1.4,1.7,1.3,4.5,2.3,6.4s3.3,2.7,4.3,4.6a5.5,5.5,0,0,1,.4,5c-1.4,3.4-5.6,5.9-9.4,5.9H524.4S531,163.9,533.9,161.1Z" transform="translate(-266.5 -117.1)"/>
        <path class="l" d="M410.5,136.7c-2.2-2.1-3.1-4.2-6-4.9a5.3,5.3,0,0,1-1.8-.5c-1.5-.9-1.2-3-1.5-4.6-.6-3.2-4.8-5.2-7.9-3.8-1.2.6-2.4,1.7-3.8,1.6s-2.5-3.7-4.5-5.7-5.5-2.1-7.9-.9a12.3,12.3,0,0,0-4.2,3.3c-1.1,1.5-1.1,3.9-1.9,5.5s-2.8,2.3-3.6,3.8a4.7,4.7,0,0,0-.4,4.3c1.2,2.9,4.8,5,8,5h43.5S412.9,139,410.5,136.7Z" transform="translate(-266.5 -117.1)"/>
        <g>
          <polygon class="n" points="344.8 66.6 314.6 50.4 322.6 26.7 359.4 45.8 344.8 66.6"/>
          <polygon class="n" points="359.4 45.8 322.6 26.7 348.8 21.1 359.4 45.8"/>
          <rect class="o" x="585.3" y="149.9" width="33.2" height="28.04" transform="translate(-123.7 -375.5) rotate(27.4)"/>
          <polygon class="p" points="322.6 26.7 310.2 50.7 334.3 49.1 322.6 26.7"/>
          <polygon class="p" points="359.4 45.8 347 69.7 334.3 49.1 359.4 45.8"/>
          <polygon class="q" points="347 69.7 310.2 50.7 338.2 41.8 347 69.7"/>
          <polygon class="p" points="347 69.7 310.2 50.7 336.4 45.1 347 69.7"/>
        </g>
        <g>
          <polygon class="n" points="102 76.6 77.3 82.8 69.9 65.8 99.6 58 102 76.6"/>
          <polygon class="n" points="99.6 58 69.9 65.8 81.6 49.7 99.6 58"/>
          <rect class="o" x="341.1" y="177.2" width="24.6" height="20.77" transform="translate(-302.7 -20.4) rotate(-14.8)"/>
          <polygon class="p" points="69.9 65.8 75.1 85.1 87.5 72.2 69.9 65.8"/>
          <polygon class="p" points="99.6 58 104.7 77.3 87.5 72.2 99.6 58"/>
          <polygon class="q" points="104.7 77.3 75.1 85.1 86 66.3 104.7 77.3"/>
          <polygon class="p" points="104.7 77.3 75.1 85.1 86.7 69 104.7 77.3"/>
        </g>
      </g>
      <g>
        <g>
          <path class="r" d="M465.5,160l.9-1.4a8.9,8.9,0,0,1-.3-2.3,4.9,4.9,0,0,1,.5-2.3c.2-.1.3,1.3.4,1.3s.8-2.8,1.2-2.8-.5,2.7-.5,2.7.7-2.9,1.1-2.8-.5,2.9-.5,2.9.7-2.7,1-2.6-.5,2.7-.5,2.7.7-2.3.9-2.2-.1,1.8-.7,4c-.1.4-.7,1.7-.7,1.8s-.7,2.4-.7,2.4" transform="translate(-266.5 -117.1)"/>
          <path class="s" d="M467.1,155.6a2.8,2.8,0,0,1,.7,1.7,2.5,2.5,0,0,1-.2,1.2" transform="translate(-266.5 -117.1)"/>
        </g>
        <g>
          <path class="t" d="M434,332.2s5.4,2,5.4,3.6-7.7.8-8.2.2.5-3.6.5-3.6Z" transform="translate(-266.5 -117.1)"/>
          <path class="u" d="M433.9,327.8v4.6a1,1,0,0,1-.9.8c-.8.1-1.4-.8-1.4-.8l-.2-5.7" transform="translate(-266.5 -117.1)"/>
          <path class="v" d="M437.6,226.5s2.9,17.7,1.4,51.6c-1,23.1-4.1,51.1-5.3,51.1a8.2,8.2,0,0,1-2.1-.1s-7.3-33.5-7.8-52.4c-.8-29.1-8.5-35.8-5.1-50.9" transform="translate(-266.5 -117.1)"/>
          <polygon class="w" points="168 210.3 167.8 212.3 164.6 212.4 164.5 210.4 168 210.3"/>
        </g>
        <g>
          <path class="t" d="M417.5,332.7s5.4,1.9,5.4,3.5-7.7.9-8.2.3.5-3.6.5-3.6Z" transform="translate(-266.5 -117.1)"/>
          <path class="u" d="M417.4,328.3v4.5a1.1,1.1,0,0,1-.9.9c-.8.1-1.4-.8-1.4-.8l-.2-5.7" transform="translate(-266.5 -117.1)"/>
          <path class="x" d="M428.1,226.8s-1.3,22.4-3.1,48.4c-.6,10.2-6.5,53.1-7.4,54.5h-2.9s-4.4-37.1-4.9-56c-.8-29.1-3.9-32.6-.6-47.7" transform="translate(-266.5 -117.1)"/>
          <polygon class="w" points="151.6 210.7 151.4 212.7 148.2 212.8 148 210.8 151.6 210.7"/>
          <path class="y" d="M427.4,238.1s-1.1,28.7-3.2,45.6" transform="translate(-266.5 -117.1)"/>
        </g>
        <path class="z" d="M431.2,166.9c-1.8-3.2-6.8-2.7-9.6-1.2s-5,8-8.7,10.6c-1.7,1.1-3.7,1.8-5,3.3a6.7,6.7,0,0,0-1.1,6.7,10.4,10.4,0,0,0,4.5,5.2,22.2,22.2,0,0,0,6.5,2.4c3.6.9,7.5,1.3,11,.1s6.5-4.5,6.5-8.3-2.1-6.2-1.7-9.4" transform="translate(-266.5 -117.1)"/>
        <path class="aa" d="M465.8,158.9,454,175.8c-3.4,4.8-17.4,5.8-24.9,10.2l-5.2.6c-2.4.5-10.9,6.5-11.7,9-1.9,5.5-3.7,11.2-4,17q-.1,3,0,6l.3,8.6a1.3,1.3,0,0,0,.1.6c.1.2.4.2.6.3,9.4,2.1,19.1,1,28.7-.2.3-.1.7-.1.9-.4a1.4,1.4,0,0,0,.4-1.1c0-1.9-.1-3.7-.1-5.5a146.6,146.6,0,0,1,.8-23.9c3-1.9,15.2-5.7,19.3-11.4a49,49,0,0,0,9.2-26Z" transform="translate(-266.5 -117.1)"/>
        <path class="ab" d="M429.1,186l-.2-6.6-2.9.4-2.1,6.7a3.3,3.3,0,0,0,3.1,1.1C428.9,187.3,429.1,186,429.1,186Z" transform="translate(-266.5 -117.1)"/>
        <path class="ac" d="M422.9,176.8c-.1-2.6.6-5.4,2-6.9s3.9-1.7,5.7-1.5a3.6,3.6,0,0,1,1.8.7c1.9,1.6,1.8,5.1,1.6,7.3a8.5,8.5,0,0,1-1.8,5.1,2.8,2.8,0,0,1-1.3,1.1,6.3,6.3,0,0,1-5.8-.9A6.4,6.4,0,0,1,422.9,176.8Z" transform="translate(-266.5 -117.1)"/>
        <path class="z" d="M422.1,178.8c-.7.3-1.8.6-2.3-.2s-.1-1.5.1-2.1a61.3,61.3,0,0,1,1.8-6.1,13.8,13.8,0,0,1,1.4-3c1.3-1.7,4.8-2.5,6.9-2.3s6,3.6,4,8c-.3-1.1-.7-1-1.5-1.9a4.8,4.8,0,0,1-2.9,1.2c-1.4.2-3-.1-4,.8s-.8,2.8-1.6,4.1A4,4,0,0,1,422.1,178.8Z" transform="translate(-266.5 -117.1)"/>
        <path class="u" d="M424.5,177.2a.8.8,0,0,0-.7-1c-1.1-.1-1.4,1.5-1,2.3s1.1,1,1.5.3" transform="translate(-266.5 -117.1)"/>
        <g>
          <g>
            <path class="z" d="M426.2,181.1h-.7a3.5,3.5,0,0,1-2-1.3,1.6,1.6,0,0,1-.3-.9.1.1,0,0,1,.1-.1h.1a.9.9,0,0,0,.3.7,2.7,2.7,0,0,0,1.8,1.2,9,9,0,0,0,2.2.2h-1.5Z" transform="translate(-266.5 -117.1)"/>
            <path class="z" d="M428.3,180.7h-.7c-.7.3.1,1.3.8.8s.1-.1.1-.2A.4.4,0,0,0,428.3,180.7Z" transform="translate(-266.5 -117.1)"/>
          </g>
          <path class="w" d="M421.1,172.9a9.9,9.9,0,0,1,1.9-5c1.3-1.8,3.1-3.2,4.9-3.2a4.5,4.5,0,0,1,2.1.4,9.8,9.8,0,0,0-4.7,2.7,9.1,9.1,0,0,0-2.3,5.7" transform="translate(-266.5 -117.1)"/>
          <path class="w" d="M425.5,175.7a3.2,3.2,0,1,1-3.5-3.2A3.4,3.4,0,0,1,425.5,175.7Z" transform="translate(-266.5 -117.1)"/>
          <path class="ad" d="M424,176a2.2,2.2,0,0,1-1.8,2.6,2.1,2.1,0,0,1-2.3-2.1,2.3,2.3,0,0,1,1.8-2.7A2.3,2.3,0,0,1,424,176Z" transform="translate(-266.5 -117.1)"/>
        </g>
      </g>
      <g>
        <polygon class="ae" points="221.2 53.2 114 147.1 114 276.1 328.4 276.1 328.4 147.1 221.2 53.2"/>
        <rect class="af" x="124.9" y="86.2" width="192.7" height="176.6"/>
        <g>
          <rect class="ag" x="135.9" y="109.2" width="170.6" height="15.08"/>
          <rect class="ag" x="135.9" y="131.3" width="170.6" height="15.08"/>
          <rect class="ag" x="135.9" y="153.4" width="170.6" height="89.67"/>
          <text class="ah" transform="translate(141.4 118.4)">NAME</text>
          <text class="ah" transform="translate(141.4 141.1)">EMAIL</text>
          <text class="ah" transform="translate(141.4 163.2)">MESAGE</text>
          <text class="ai" transform="translate(191.7 102)">CONTACT ME</text>
        </g>
        <polygon class="aj" points="221.2 229 114 147.1 114 262.8 328.4 262.8 328.4 147.1 221.2 229"/>
        <polygon class="ak" points="221.2 242.3 114 147.1 114 276.1 328.4 276.1 328.4 147.1 221.2 242.3"/>
        <polygon class="al" points="221.2 175.1 114 276.1 328.4 276.1 221.2 175.1"/>
        <polygon class="am" points="221.2 184.9 114 276.1 328.4 276.1 221.2 184.9"/>
      </g>
      <g>
        <path class="an" d="M557.8,399.5c-2.2-11.3.1-22.9,4.6-32.6,3-6.3,9.8-15.1,17.4-15,5.6.1,8,5.8,8.3,10.9.9,13.4-5.4,17.5-5.4,32,.3-5.5,5.6-23.3,13.9-17.2s.2,21.9.2,21.9" transform="translate(-266.5 -117.1)"/>
        <path class="d" d="M594.3,381c-3.4,5.6-6.6,11.9-6.8,18.5-.1.3.3.3.4.1.9-6.7,3.4-12.6,6.7-18.4.1-.2-.2-.4-.3-.2Z" transform="translate(-266.5 -117.1)"/>
        <path class="d" d="M579.1,360.1c-4.4,6.3-6.5,14.1-8.1,21.5a135.4,135.4,0,0,0-2.6,17.9c-.1.3.4.3.4.1,1.8-13.1,3-28.1,10.7-39.4.1-.1-.2-.3-.4-.1Z" transform="translate(-266.5 -117.1)"/>
      </g>
      <g>
        <path class="ao" d="M416.1,217.1a6.5,6.5,0,0,0,1.9,1,15.2,15.2,0,0,1,2.8-.2,8.3,8.3,0,0,1,2.3.6c0,.3-1.4.3-1.4.4s2.8,1.1,2.7,1.5-2.8-.8-2.8-.8,2.9,1,2.8,1.3-2.9-.7-2.9-.7,2.6.9,2.4,1.2-2.7-.4-2.7-.4,2.3.5,2.1.7-2.5-.1-4.5-.9a13.3,13.3,0,0,1-3.5-1.9" transform="translate(-266.5 -117.1)"/>
        <path class="ap" d="M417.1,197.6c-2.4,3.6-8,7.9-11.1,10.5,1.8,2.3,11.8,9.8,11.8,9.8l-.9,2.2s-19.1-3.4-19.7-12.8c-.3-5.6,6.8-13.9,12.3-17.8s11.2-4.2,14.4-2.9" transform="translate(-266.5 -117.1)"/>
      </g>
      <g>
        <path class="aq" d="M556.3,238.5c-2.1-.8-5-3.4-4.7-4.8s1.6,1,2,.6.1-1.5-.7-2.1-2.3-1.7-1.9-2.1,4.2.5,5.1,1.8a16.3,16.3,0,0,1,1.5,4.6l1.6,2" transform="translate(-266.5 -117.1)"/>
        <g>
          <path class="t" d="M596.6,401.7s-6.6,2-6.6,3.5,9.6.6,10.2.1-.8-3.4-.8-3.4Z" transform="translate(-266.5 -117.1)"/>
          <path class="u" d="M596.6,397.6v4.3a1.1,1.1,0,0,0,1.2.7,1.9,1.9,0,0,0,1.6-.7v-5.4" transform="translate(-266.5 -117.1)"/>
          <path class="ar" d="M588.8,302.1s-3.1,16.7-.1,48.7c1.9,21.8,6.7,48.1,8.1,48.1h2.7s7.9-31.9,7.9-49.7c0-27.5,9.3-34,4.7-48.2" transform="translate(-266.5 -117.1)"/>
          <polygon class="w" points="329.4 280.1 329.7 282 333.6 282 333.8 280.1 329.4 280.1"/>
        </g>
        <g>
          <path class="t" d="M617,401.7s-6.6,2-6.6,3.5,9.6.6,10.2.1-.8-3.4-.8-3.4Z" transform="translate(-266.5 -117.1)"/>
          <path class="u" d="M617,397.6v4.3a1.1,1.1,0,0,0,1.2.7,1.9,1.9,0,0,0,1.6-.7v-5.4" transform="translate(-266.5 -117.1)"/>
          <path class="as" d="M600.4,302.1l5.4,45.6c1.2,9.6,9.9,49.9,10.9,51.2h3.6s4.3-35.1,4.3-52.9c0-27.5,3.8-30.9-.8-45.1" transform="translate(-266.5 -117.1)"/>
          <polygon class="w" points="349.7 280.1 350 282 353.9 282 354.1 280.1 349.7 280.1"/>
          <path class="y" d="M601.7,312.8s2.3,27,5.4,42.9" transform="translate(-266.5 -117.1)"/>
        </g>
        <g>
          <path class="at" d="M624.7,298.5c0-1.7,1.3-31.9-3.9-38.7-1.5-3.2-7-6.8-11.3-8.4s-6.3-.3-8.1,0c-7.3-2.1-24.2-.7-28.9-3.1-2.5-1.3-14.6-11.8-14.6-11.8l-2.2,1.8s7.2,15,15.3,20.3c5.6,3.7,14.1,5.7,18.6,6.6-.1.8-.1,1.7-.2,2.8a301.1,301.1,0,0,0-.2,30.6c0,1.5-1.6,3.4-1.6,4.4s2,4.1,18.2,4.1c13.7,0,20.2-2,20.2-4.3S624.7,300.3,624.7,298.5Z" transform="translate(-266.5 -117.1)"/>
          <g class="au">
            <path class="av" d="M590,259v1a7.4,7.4,0,0,1,0,2.1,13.8,13.8,0,0,1-.2,2.2l-.2.9a4.5,4.5,0,0,1-.1-1v-2.1l.3-2.1A2.4,2.4,0,0,1,590,259Z" transform="translate(-266.5 -117.1)"/>
          </g>
        </g>
        <path class="aw" d="M600.4,232.9c-.6,2.4-2.1,9.1-.7,11.2a5.7,5.7,0,0,0,6.6,1.7,8.7,8.7,0,0,0,4.6-5.5,20.4,20.4,0,0,0,.5-7.4" transform="translate(-266.5 -117.1)"/>
        <path class="ax" d="M603.1,241.7l-1,8.1s.4,2.3,1.6,3.1c3,0,4.5-2.9,4.5-2.9l-.9-10.4" transform="translate(-266.5 -117.1)"/>
        <path class="t" d="M608.4,235.2c-1.6-.6-3.7-.4-5.7-.7a20.1,20.1,0,0,1-4.1-.9c-2.3-1-2.1-4.5-.2-5.9a2.4,2.4,0,0,1,1.8-.5c.7.1,1,.8,1.6,1.1a1.8,1.8,0,0,0,1,.2c.3-.1.5-.1.7-.3s.5-.8.8-1.1a2.2,2.2,0,0,1,1.2-.5,3,3,0,0,1,2.7.4l.8.5c.5.2,1.1.1,1.5.4a5.4,5.4,0,0,1,2.3,4c0,.2.4.5.5.6s1.4,3.7,1.1,5.5-1,3.7-2.6,4.9a4.6,4.6,0,0,1-2,.9c-2.7,1-1.3-6.5-1.4-8.6" transform="translate(-266.5 -117.1)"/>
        <path class="u" d="M608.8,239.3a.8.8,0,0,1,1.3-.6,1,1,0,0,1,.5.8,2,2,0,0,1-1.3,2.1.9.9,0,0,1-.8-.8" transform="translate(-266.5 -117.1)"/>
        <g>
          <g>
            <path class="z" d="M605.9,244.1h.8a3.3,3.3,0,0,0,2-1.3,1.3,1.3,0,0,0,.3-.8h-.2a1.3,1.3,0,0,1-.3.7,3.6,3.6,0,0,1-1.9,1.2h-.7Z" transform="translate(-266.5 -117.1)"/>
            <path class="z" d="M603.9,243.7h.6c.8.2,0,1.2-.7.7l-.2-.2C603.5,244.1,603.7,243.8,603.9,243.7Z" transform="translate(-266.5 -117.1)"/>
          </g>
          <path class="w" d="M611,236.1a10.4,10.4,0,0,0-1.8-4.9c-1.4-1.7-3.2-3.1-4.9-3.1a6.1,6.1,0,0,0-2.2.3,9.6,9.6,0,0,1,4.7,2.8,7.8,7.8,0,0,1,2.3,5.4" transform="translate(-266.5 -117.1)"/>
          <path class="w" d="M606.7,238.8a3.2,3.2,0,1,0,6.3.7,3.2,3.2,0,1,0-6.3-.7Z" transform="translate(-266.5 -117.1)"/>
          <path class="ay" d="M608.2,239.1a2.2,2.2,0,0,0,1.8,2.6,2.2,2.2,0,0,0,2.3-2.1,2.3,2.3,0,0,0-1.8-2.6A2.2,2.2,0,0,0,608.2,239.1Z" transform="translate(-266.5 -117.1)"/>
        </g>
        <g>
          <g>
            <path class="ay" d="M603.7,296.3H571.3l-3.1-19.5a1.3,1.3,0,0,1,1.3-1.6h28.9a2.2,2.2,0,0,1,2.2,1.9Z" transform="translate(-266.5 -117.1)"/>
            <path class="az" d="M602.8,296.3H570.4l-3.2-19.5a1.4,1.4,0,0,1,1.4-1.6h28.8a2.2,2.2,0,0,1,2.2,1.9Z" transform="translate(-266.5 -117.1)"/>
            <path class="ba" d="M586.7,285.3c-.4-1.7-1.6-2.9-2.8-2.7s-1.9,1.8-1.6,3.4,1.7,2.8,2.8,2.6S587,286.9,586.7,285.3Z" transform="translate(-266.5 -117.1)"/>
          </g>
          <g>
            <path class="bb" d="M620.8,259.8c-1.5-3.2-5.4-4.5-9.8-6.1l-1.2,14.8a137,137,0,0,0,3,16.4l-13.5,10.3h0l-.6.3c-.1,0-1.4-.8-2.1-.6s-1.5.1-1.5.4,1,.3,1,.5-.7.7-1,.7a19.1,19.1,0,0,0-2.4,0c-.1.2.4,1,.9,1.5a4.2,4.2,0,0,0,1.8.6,10.1,10.1,0,0,0,3.6-.7l1.3-.8.5.9s18.4-1.5,24-4C625,284.9,624.9,265.1,620.8,259.8Z" transform="translate(-266.5 -117.1)"/>
            <path class="bc" d="M600.4,294.4a13.1,13.1,0,0,1-1.7.9,6.4,6.4,0,0,0-2.1-.5c-.7.1-1.5.1-1.5.4s1,.2,1,.4-.7.6-1,.6h-2.4c-.1.1.4.9.9,1.3a4.3,4.3,0,0,0,1.8.5,10.7,10.7,0,0,0,3.6-.6l2.6-1.2" transform="translate(-266.5 -117.1)"/>
            <path class="bd" d="M609.5,251.4s9.4.6,13.9,9.4,3.1,27.4.4,30.1-23.7,6.2-23.7,6.2l-.8-1.9,14.7-9.3s-4.6-15.4-4.6-21.6" transform="translate(-266.5 -117.1)"/>
          </g>
        </g>
        <g>
          <path class="be" d="M603.7,252.9a9.8,9.8,0,0,1,1.6,3.1,7.3,7.3,0,0,0,4.2-4.6l-1.3-1.4S605.7,252.5,603.7,252.9Z" transform="translate(-266.5 -117.1)"/>
          <path class="bf" d="M603.7,252.9a7.2,7.2,0,0,0-1.6,2.6,8.4,8.4,0,0,1-1.3-4,13.1,13.1,0,0,1,1.3-1.7A5.5,5.5,0,0,0,603.7,252.9Z" transform="translate(-266.5 -117.1)"/>
        </g>
      </g>
      <g>
        <g>
          <g>
            <path class="bg" d="M328.2,400.8s-6.5,2-6.5,3.5,9.6.7,10.2.1-.8-3.8-.8-3.8Z" transform="translate(-266.5 -117.1)"/>
            <path class="u" d="M328.2,396.7V401a1.1,1.1,0,0,0,1.2.7,1.9,1.9,0,0,0,1.6-.7v-5.4" transform="translate(-266.5 -117.1)"/>
            <path class="bh" d="M330.4,278.5c-4.4,5.7-9.6,21.8-9.6,52.3,0,21.6,7,66.8,7,66.8l4,.4c12.8-80.8,8.5-80,11.7-94.4,2-9-2.1-31.7-2.1-31.7" transform="translate(-266.5 -117.1)"/>
            <path class="bi" d="M341,329.3s-2.8-15.4-2.8-18.5a56.5,56.5,0,0,0,0,20.1l1.8,8.3Z" transform="translate(-266.5 -117.1)"/>
            <path class="w" d="M327.6,396.5v1.7a30.1,30.1,0,0,0,4.2.5c0-.3.2-2,.2-2Z" transform="translate(-266.5 -117.1)"/>
          </g>
          <g>
            <path class="bg" d="M363.1,400.8s6.6,2,6.5,3.5-9.6.7-10.1.1.7-3.8.7-3.8Z" transform="translate(-266.5 -117.1)"/>
            <path class="u" d="M362.4,396.7l.7,4.3a1.1,1.1,0,0,1-1.2.7,1.9,1.9,0,0,1-1.6-.7l-.9-5.4" transform="translate(-266.5 -117.1)"/>
            <path class="bj" d="M351.7,276c4.3,7.3,12,22.3,12,52.8,0,21.6-.6,68.8-.6,68.8l-3.4.4c-11.1-30.9-20.3-70.2-22.4-93.1-.9-9.2.8-33,.8-33" transform="translate(-266.5 -117.1)"/>
            <path class="bk" d="M352.2,276.8a130.7,130.7,0,0,0-14.2-3.3.7.7,0,0,0-.1.5l-7.5,4.5a25.6,25.6,0,0,0-2.7,4.8,34.1,34.1,0,0,0,9.6,2.2c6.3.6,14.1-.7,18-2.5C354.2,280.5,353.1,278.5,352.2,276.8Z" transform="translate(-266.5 -117.1)"/>
            <path class="w" d="M363.7,396.2v1.7a32.9,32.9,0,0,1-4.4.5c0-.3-.2-2-.2-2Z" transform="translate(-266.5 -117.1)"/>
          </g>
        </g>
        <g>
          <g>
            <path class="bl" d="M386,259.9l1.4-.8s.3-.9.8-2,1.1-1.7,1.4-1.7-.3,1.3-.2,1.3,2-2,2.3-1.8-1.6,2-1.6,2,1.9-2.1,2.1-1.8-1.7,2.1-1.7,2.1,1.8-1.8,2-1.6-1.6,2-1.6,2,1.6-1.6,1.7-1.4-.8,1.4-2.4,3l-1.4,1.1-1.6,1.7" transform="translate(-266.5 -117.1)"/>
            <path class="bm" d="M389.3,256.9a6.1,6.1,0,0,1-.1,1.4,2,2,0,0,1-.8,1.2c0,.1,0,.2.1.2a2.5,2.5,0,0,0,.9-2.8Z" transform="translate(-266.5 -117.1)"/>
          </g>
          <g>
            <path class="bn" d="M293.4,232.9l-1-1.3a7.7,7.7,0,0,0,.1-2.1c0-.6-.3-2-.6-2.1s-.2,1.2-.3,1.2-1-2.6-1.4-2.5a11.7,11.7,0,0,0,.7,2.5s-.9-2.7-1.2-2.6.6,2.7.6,2.7-.8-2.4-1.1-2.3.6,2.4.6,2.4-.8-2.1-.9-1.9.1,1.6.9,3.7l.9,1.6c0,.1.8,2.2.8,2.2" transform="translate(-266.5 -117.1)"/>
            <path class="bo" d="M291.5,228.9a2.6,2.6,0,0,0-.5,1.7,2.3,2.3,0,0,0,.3,1.1" transform="translate(-266.5 -117.1)"/>
          </g>
          <g>
            <path class="bp" d="M387,259.3s-14.3,5.3-17.6,5.3-7.2-7.3-13.6-12.2a35.4,35.4,0,0,0-8.4-4.8l-12-.2a107.2,107.2,0,0,0-10.8.8c-6,.8-11.6.6-14.2-.6-5-2.2-17.6-15.7-17.6-15.7a2.4,2.4,0,0,0-2.2.8c0,.7,6.4,19.1,15,24.7,6.2,4,15.4,4.7,21.1,4.6v3.9c0,1.8-2.2,11.1.4,13.7s11.7,2.8,15.3,2.8c5.4,0,10.9-.9,12.3-2.8s.6-5.1.4-9c4.3,2.7,8.2,5.4,13.1,5.4,9.3,0,20.2-14.5,20.2-14.5Z" transform="translate(-266.5 -117.1)"/>
            <polygon class="bq" points="88.7 156.2 88.6 153.5 84.6 149.4 88.7 156.2"/>
            <path class="br" d="M326.7,262c0-.4.8-5,.8-5.8-1.2,2.6-3,5.8-3,5.8Z" transform="translate(-266.5 -117.1)"/>
          </g>
        </g>
        <g>
          <path class="bs" d="M345.4,226.1c3.3,2.1,2.8,6.4,4.1,9.1s2.6,3.6,2.7,5.9-3.1,3.7-4.9,3.4c-3.4-.5-6.4,1.2-9.8.8s-1.5-1.5-3-3.3a6.3,6.3,0,0,1-1.5-3.9,12.5,12.5,0,0,1,.3-4.3" transform="translate(-266.5 -117.1)"/>
          <path class="bt" d="M339.1,240.7l-.7,6.2-3,.5s2.1,3.7,5.5,3.7,6.5-3.5,6.5-3.5l-3.3-1-1.2-8.7" transform="translate(-266.5 -117.1)"/>
          <path class="bu" d="M334.2,230.6a18.4,18.4,0,0,0,.1,6.2,6.5,6.5,0,0,0,3.5,4.8,8.8,8.8,0,0,0,2.8.6,6.4,6.4,0,0,0,4.5-1.1,5.4,5.4,0,0,0,1.9-4.9,16.1,16.1,0,0,0-1.5-5.3l-2-4.8" transform="translate(-266.5 -117.1)"/>
          <path class="bv" d="M326.5,238.8a5.9,5.9,0,0,0-1.6,2.7,2.6,2.6,0,0,0,1.5,2.5,5.2,5.2,0,0,0,2.5.2,9.4,9.4,0,0,1,2.9.1,10.9,10.9,0,0,1,2.4.7,8.7,8.7,0,0,0,3.6.3c.2-.1.4-.1.5-.3a.9.9,0,0,0-.1-.7,9.6,9.6,0,0,1-.6-5.1c.1-.8.2-1.7.4-2.6a18,18,0,0,1,.8-2.1c.6-1.3,1.3-2.5,1.9-3.8s.9-3.3,2.7-3,1.7,2,2.4,3.2c1.2-1.4,2.5-2.2,0-5.3-1.2-1.6-3.3-1.5-5.2-1.1s-.9-.5-2-.6a9.6,9.6,0,0,0-8.6,5.2C328.4,232.6,328.8,236,326.5,238.8Z" transform="translate(-266.5 -117.1)"/>
          <g>
            <g>
              <path class="z" d="M338.2,240l-.8-.2a3.6,3.6,0,0,1-2-1.2,1.6,1.6,0,0,1-.3-.9h.3a1.9,1.9,0,0,0,.2.7,3.4,3.4,0,0,0,1.9,1.2,8.1,8.1,0,0,0,2.2.1.1.1,0,0,1,.1.1v.2Z" transform="translate(-266.5 -117.1)"/>
              <path class="z" d="M340.3,239.5h-.7c-.8.2,0,1.2.7.7h.2A.5.5,0,0,0,340.3,239.5Z" transform="translate(-266.5 -117.1)"/>
            </g>
            <path class="z" d="M333.1,231.9A9.5,9.5,0,0,1,335,227c1.3-1.7,3.1-3.1,4.8-3.1a4.8,4.8,0,0,1,2.2.4,8.7,8.7,0,0,0-4.7,2.7,7.9,7.9,0,0,0-2.3,5.5" transform="translate(-266.5 -117.1)"/>
            <path class="z" d="M337.5,234.7a3.2,3.2,0,0,1-2.8,3.7,3.3,3.3,0,0,1-3.6-3.1,3.3,3.3,0,0,1,2.8-3.7A3.3,3.3,0,0,1,337.5,234.7Z" transform="translate(-266.5 -117.1)"/>
            <path class="ad" d="M336,235a2.2,2.2,0,0,1-1.9,2.5,2.1,2.1,0,0,1-2.3-2.1,2.1,2.1,0,1,1,4.2-.4Z" transform="translate(-266.5 -117.1)"/>
          </g>
        </g>
      </g>
      <g>
        <path class="bw" d="M533.6,152.4l-5,2.2a.7.7,0,0,0-.2,1.3L532,159a.8.8,0,0,0,1.3-.4l1.4-5.2A.9.9,0,0,0,533.6,152.4Z" transform="translate(-266.5 -117.1)"/>
        <path class="bw" d="M317.6,218.1l1.5,5.2a.8.8,0,0,0,1.3.4l3.6-3.2a.9.9,0,0,0-.3-1.4l-5-2C318.1,216.8,317.5,217.4,317.6,218.1Z" transform="translate(-266.5 -117.1)"/>
        <path class="bw" d="M637.2,281l3.9-3.8a.9.9,0,0,0-.3-1.4l-4.5-1.5a.8.8,0,0,0-1.1.9l.6,5.3A.8.8,0,0,0,637.2,281Z" transform="translate(-266.5 -117.1)"/>
        <path class="bw" d="M619.1,221.5l1.5,5.2a.8.8,0,0,0,1.3.4l3.5-3.1a.8.8,0,0,0-.2-1.4l-5-2.1A.9.9,0,0,0,619.1,221.5Z" transform="translate(-266.5 -117.1)"/>
        <rect class="n" x="600.7" y="211.3" width="3.1" height="3.11" transform="translate(-272 292.3) rotate(-37.4)"/>
        <rect class="n" x="577.1" y="189.4" width="3.1" height="3.11" transform="translate(-274.4 -91.2) rotate(-2.6)"/>
        <rect class="n" x="377.7" y="230.1" width="3.1" height="3.11" transform="translate(-324.7 36.4) rotate(-21.3)"/>
        <rect class="n" x="407.5" y="154.3" width="3.1" height="3.11" transform="matrix(0.93, 0.36, -0.36, 0.93, -183.59, -253.22)"/>
        <rect class="n" x="285.7" y="309.3" width="3.1" height="3.11" transform="translate(-280 -104) rotate(-2.6)"/>
      </g>
    </g>
  </g>
</svg>
