<svg id="Layer_1" data-name="Layer 1" xmlns="http://www.w3.org/2000/svg" xmlns:xlink="http://www.w3.org/1999/xlink" viewBox="0 0 79.62 86.76"><defs><style>.cls-1,.cls-2{fill-rule:evenodd;}.cls-1{fill:url(#linear-gradient);}.cls-2{fill:#fdfdfd;}</style><linearGradient id="linear-gradient" x1="29.48" y1="69.01" x2="57.06" y2="21.24" gradientUnits="userSpaceOnUse"><stop offset="0" stop-color="#5fefc0"/><stop offset="0.13" stop-color="#5cecc6"/><stop offset="1" stop-color="#4cd9ed"/></linearGradient></defs><path class="cls-1" d="M63.17,10.65C84.64,23.59,83,21.73,83.08,45.13c-.47,25.06.31,22.69-19.91,34.48-21.94,12.12-19.5,11.61-39.81,0C1.89,66.67,3.55,68.53,3.45,45.13c.47-25.06-.31-22.69,19.91-34.48C45.3-1.47,42.86-1,63.17,10.65Z" transform="translate(-3.45 -1.75)"/><path class="cls-2" d="M36.4,30.92V23.16H55.82V49.25q0,8.93-4.54,13.39A15.9,15.9,0,0,1,39.65,67.1a20.68,20.68,0,0,1-15.21-6.29l4.9-6.8q5,4.76,9.73,4.75a8,8,0,0,0,5.74-2.26c1.58-1.52,2.38-3.78,2.38-6.81V30.92Z" transform="translate(-3.45 -1.75)"/></svg>